  0
SECTION
  2
HEADER
  9
$ACADVER
  1
AC1014
  9
$HANDSEED
  5
FFFF
  9
$MEASUREMENT
 70
     1
  0
ENDSEC
  0
SECTION
  2
TABLES
  0
TABLE
  2
VPORT
  5
8
330
0
100
AcDbSymbolTable
 70
     4
  0
VPORT
  5
2E
330
8
100
AcDbSymbolTableRecord
100
AcDbViewportTableRecord
  2
*ACTIVE
 70
     0
 10
0.0
 20
0.0
 11
1.0
 21
1.0
 12
210.0
 22
148.5
 13
0.0
 23
0.0
 14
10.0
 24
10.0
 15
10.0
 25
10.0
 16
0.0
 26
0.0
 36
1.0
 17
0.0
 27
0.0
 37
0.0
 40
341.0
 41
1.24
 42
50.0
 43
0.0
 44
0.0
 50
0.0
 51
0.0
 71
     0
 72
   100
 73
     1
 74
     3
 75
     0
 76
     0
 77
     0
 78
     0
  0
ENDTAB
  0
TABLE
  2
LTYPE
  5
5
330
0
100
AcDbSymbolTable
 70
     1
  0
LTYPE
  5
14
330
5
100
AcDbSymbolTableRecord
100
AcDbLinetypeTableRecord
  2
BYBLOCK
 70
     0
  3

 72
    65
 73
     0
 40
0.0
  0
LTYPE
  5
15
330
5
100
AcDbSymbolTableRecord
100
AcDbLinetypeTableRecord
  2
BYLAYER
 70
     0
  3

 72
    65
 73
     0
 40
0.0
  0
LTYPE
  5
16
330
5
100
AcDbSymbolTableRecord
100
AcDbLinetypeTableRecord
  2
CONTINUOUS
 70
     0
  3
Solid line
 72
    65
 73
     0
 40
0.0
  0
ENDTAB
  0
TABLE
  2
LAYER
  5
2
100
AcDbSymbolTable
 70
1
  0
LAYER
  5
50
100
AcDbSymbolTableRecord
100
AcDbLayerTableRecord
  2
0
 70
0
  6
CONTINUOUS
  0
ENDTAB
  0
TABLE
  2
STYLE
  5
3
330
0
100
AcDbSymbolTable
 70
     1
  0
STYLE
  5
11
330
3
100
AcDbSymbolTableRecord
100
AcDbTextStyleTableRecord
  2
STANDARD
 70
     0
 40
0.0
 41
1.0
 50
0.0
 71
     0
 42
2.5
  3
txt
  4

  0
ENDTAB
  0
TABLE
  2
VIEW
  5
6
330
0
100
AcDbSymbolTable
 70
     0
  0
ENDTAB
  0
TABLE
  2
UCS
  5
7
330
0
100
AcDbSymbolTable
 70
     0
  0
ENDTAB
  0
TABLE
  2
APPID
  5
9
330
0
100
AcDbSymbolTable
 70
     2
  0
APPID
  5
12
330
9
100
AcDbSymbolTableRecord
100
AcDbRegAppTableRecord
  2
ACAD
 70
     0
  0
ENDTAB
  0
TABLE
  2
DIMSTYLE
  5
A
330
0
100
AcDbSymbolTable
 70
     1
  0
DIMSTYLE
105
27
330
A
100
AcDbSymbolTableRecord
100
AcDbDimStyleTableRecord
  2
ISO-25
 70
     0
  3

  4

  5

  6

  7

 40
1.0
 41
2.5
 42
0.625
 43
3.75
 44
1.25
 45
0.0
 46
0.0
 47
0.0
 48
0.0
140
2.5
141
2.5
142
0.0
143
0.03937007874016
144
1.0
145
0.0
146
1.0
147
0.625
 71
     0
 72
     0
 73
     0
 74
     0
 75
     0
 76
     0
 77
     1
 78
     8
170
     0
171
     3
172
     1
173
     0
174
     0
175
     0
176
     0
177
     0
178
     0
270
     2
271
     2
272
     2
273
     2
274
     3
340
11
275
     0
280
     0
281
     0
282
     0
283
     0
284
     8
285
     0
286
     0
287
     3
288
     0
  0
ENDTAB
  0
TABLE
  2
BLOCK_RECORD
  5
1
330
0
100
AcDbSymbolTable
 70
     1
  0
BLOCK_RECORD
  5
1F
330
1
100
AcDbSymbolTableRecord
100
AcDbBlockTableRecord
  2
*MODEL_SPACE
  0
BLOCK_RECORD
  5
1B
330
1
100
AcDbSymbolTableRecord
100
AcDbBlockTableRecord
  2
*PAPER_SPACE
  0
ENDTAB
  0
ENDSEC
  0
SECTION
  2
BLOCKS
  0
BLOCK
  5
20
330
1F
100
AcDbEntity
  8
0
100
AcDbBlockBegin
  2
*MODEL_SPACE
 70
     0
 10
0.0
 20
0.0
 30
0.0
  3
*MODEL_SPACE
  1

  0
ENDBLK
  5
21
330
1F
100
AcDbEntity
  8
0
100
AcDbBlockEnd
  0
BLOCK
  5
1C
330
1B
100
AcDbEntity
 67
     1
  8
0
100
AcDbBlockBegin
  2
*PAPER_SPACE
  1

  0
ENDBLK
  5
1D
330
1B
100
AcDbEntity
 67
     1
  8
0
100
AcDbBlockEnd
  0
ENDSEC
  0
SECTION
  2
ENTITIES
  0
LINE
  5
100
100
AcDbEntity
  8
0
 62
7
100
AcDbLine
 10
0.000000
 20
5.342961
 30
0.0
 11
0.000000
 21
31.258581
 31
0.0
  0
SPLINE
  5
101
100
AcDbEntity
  8
0
 62
7
100
AcDbSpline
 70
8
 71
3
 72
8
 73
4
 74
0
 40
0
 40
0
 40
0
 40
0
 40
1
 40
1
 40
1
 40
1
 10
0.000000
 20
31.258581
 30
0.0
 10
0.000000
 20
33.858651
 30
0.0
 10
0.788541
 20
35.982801
 30
0.0
 10
2.365651
 20
37.630921
 30
0.0
  0
SPLINE
  5
102
100
AcDbEntity
  8
0
 62
7
100
AcDbSpline
 70
8
 71
3
 72
8
 73
4
 74
0
 40
0
 40
0
 40
0
 40
0
 40
1
 40
1
 40
1
 40
1
 10
2.365651
 20
37.630921
 30
0.0
 10
3.942762
 20
39.279050
 30
0.0
 10
5.988728
 20
40.103183
 30
0.0
 10
8.503574
 20
40.103183
 30
0.0
  0
SPLINE
  5
103
100
AcDbEntity
  8
0
 62
7
100
AcDbSpline
 70
8
 71
3
 72
8
 73
4
 74
0
 40
0
 40
0
 40
0
 40
0
 40
1
 40
1
 40
1
 40
1
 10
8.503574
 20
40.103183
 30
0.0
 10
11.487281
 20
40.103183
 30
0.0
 10
13.781893
 20
38.732089
 30
0.0
 10
15.387413
 20
35.989951
 30
0.0
  0
SPLINE
  5
104
100
AcDbEntity
  8
0
 62
7
100
AcDbSpline
 70
8
 71
3
 72
8
 73
4
 74
0
 40
0
 40
0
 40
0
 40
0
 40
1
 40
1
 40
1
 40
1
 10
15.387413
 20
35.989951
 30
0.0
 10
16.367727
 20
37.467501
 30
0.0
 10
17.419182
 20
38.518991
 30
0.0
 10
18.541624
 20
39.144086
 30
0.0
  0
SPLINE
  5
105
100
AcDbEntity
  8
0
 62
7
100
AcDbSpline
 70
8
 71
3
 72
8
 73
4
 74
0
 40
0
 40
0
 40
0
 40
0
 40
1
 40
1
 40
1
 40
1
 10
18.541624
 20
39.144086
 30
0.0
 10
19.664066
 20
39.783344
 30
0.0
 10
21.049352
 20
40.102950
 30
0.0
 10
22.697501
 20
40.102950
 30
0.0
  0
SPLINE
  5
106
100
AcDbEntity
  8
0
 62
7
100
AcDbSpline
 70
8
 71
3
 72
8
 73
4
 74
0
 40
0
 40
0
 40
0
 40
0
 40
1
 40
1
 40
1
 40
1
 10
22.697501
 20
40.102950
 30
0.0
 10
25.311799
 20
40.102950
 30
0.0
 10
27.315145
 20
39.279143
 30
0.0
 10
28.707544
 20
37.630741
 30
0.0
  0
SPLINE
  5
107
100
AcDbEntity
  8
0
 62
7
100
AcDbSpline
 70
8
 71
3
 72
8
 73
4
 74
0
 40
0
 40
0
 40
0
 40
0
 40
1
 40
1
 40
1
 40
1
 10
28.707544
 20
37.630741
 30
0.0
 10
30.099943
 20
35.982611
 30
0.0
 10
30.796145
 20
33.609891
 30
0.0
 10
30.796145
 20
30.512541
 30
0.0
  0
LINE
  5
108
100
AcDbEntity
  8
0
 62
7
100
AcDbLine
 10
30.796145
 20
30.512541
 30
0.0
 11
30.796145
 21
10.287191
 31
0.0
  0
LINE
  5
109
100
AcDbEntity
  8
0
 62
7
100
AcDbLine
 10
30.796145
 20
10.287191
 30
0.0
 11
22.143381
 21
10.287191
 31
0.0
  0
LINE
  5
10a
100
AcDbEntity
  8
0
 62
7
100
AcDbLine
 10
22.143381
 20
10.287191
 30
0.0
 11
22.143381
 21
29.212481
 31
0.0
  0
SPLINE
  5
10b
100
AcDbEntity
  8
0
 62
7
100
AcDbSpline
 70
8
 71
3
 72
8
 73
4
 74
0
 40
0
 40
0
 40
0
 40
0
 40
1
 40
1
 40
1
 40
1
 10
22.143381
 20
29.212481
 30
0.0
 10
22.143381
 20
30.150731
 30
0.0
 10
22.065011
 20
30.768211
 30
0.0
 10
21.908923
 20
31.066601
 30
0.0
  0
SPLINE
  5
10c
100
AcDbEntity
  8
0
 62
7
100
AcDbSpline
 70
8
 71
3
 72
8
 73
4
 74
0
 40
0
 40
0
 40
0
 40
0
 40
1
 40
1
 40
1
 40
1
 10
21.908923
 20
31.066601
 30
0.0
 10
21.766855
 20
31.379061
 30
0.0
 10
21.468466
 20
31.535751
 30
0.0
 10
21.013770
 20
31.535751
 30
0.0
  0
SPLINE
  5
10d
100
AcDbEntity
  8
0
 62
7
100
AcDbSpline
 70
8
 71
3
 72
8
 73
4
 74
0
 40
0
 40
0
 40
0
 40
0
 40
1
 40
1
 40
1
 40
1
 10
21.013770
 20
31.535751
 30
0.0
 10
20.161308
 20
31.535751
 30
0.0
 10
19.735044
 20
30.810931
 30
0.0
 10
19.735044
 20
29.361881
 30
0.0
  0
LINE
  5
10e
100
AcDbEntity
  8
0
 62
7
100
AcDbLine
 10
19.735044
 20
29.361881
 30
0.0
 11
19.735044
 21
10.287521
 31
0.0
  0
LINE
  5
10f
100
AcDbEntity
  8
0
 62
7
100
AcDbLine
 10
19.735044
 20
10.287521
 30
0.0
 11
11.082290
 21
10.287521
 31
0.0
  0
LINE
  5
110
100
AcDbEntity
  8
0
 62
7
100
AcDbLine
 10
11.082290
 20
10.287521
 30
0.0
 11
11.082290
 21
29.212801
 31
0.0
  0
SPLINE
  5
111
100
AcDbEntity
  8
0
 62
7
100
AcDbSpline
 70
8
 71
3
 72
8
 73
4
 74
0
 40
0
 40
0
 40
0
 40
0
 40
1
 40
1
 40
1
 40
1
 10
11.082290
 20
29.212801
 30
0.0
 10
11.082290
 20
30.136621
 30
0.0
 10
11.003920
 20
30.754291
 30
0.0
 10
10.847832
 20
31.066931
 30
0.0
  0
SPLINE
  5
112
100
AcDbEntity
  8
0
 62
7
100
AcDbSpline
 70
8
 71
3
 72
8
 73
4
 74
0
 40
0
 40
0
 40
0
 40
0
 40
1
 40
1
 40
1
 40
1
 10
10.847832
 20
31.066931
 30
0.0
 10
10.691511
 20
31.379381
 30
0.0
 10
10.386018
 20
31.536031
 30
0.0
 10
9.931439
 20
31.536031
 30
0.0
  0
SPLINE
  5
113
100
AcDbEntity
  8
0
 62
7
100
AcDbSpline
 70
8
 71
3
 72
8
 73
4
 74
0
 40
0
 40
0
 40
0
 40
0
 40
1
 40
1
 40
1
 40
1
 10
9.931439
 20
31.536031
 30
0.0
 10
9.078976
 20
31.536031
 30
0.0
 10
8.652703
 20
30.761711
 30
0.0
 10
8.652703
 20
29.213081
 30
0.0
  0
LINE
  5
114
100
AcDbEntity
  8
0
 62
7
100
AcDbLine
 10
8.652703
 20
29.213081
 30
0.0
 11
8.652703
 21
5.343371
 31
0.0
  0
LINE
  5
115
100
AcDbEntity
  8
0
 62
7
100
AcDbLine
 10
8.652703
 20
5.343371
 30
0.0
 11
0.000000
 21
5.342961
 31
0.0
  0
SPLINE
  5
116
100
AcDbEntity
  8
0
 62
7
100
AcDbSpline
 70
8
 71
3
 72
8
 73
4
 74
0
 40
0
 40
0
 40
0
 40
0
 40
1
 40
1
 40
1
 40
1
 10
49.572194
 20
18.556561
 30
0.0
 10
49.471168
 20
15.098881
 30
0.0
 10
49.730047
 20
13.598211
 30
0.0
 10
49.731997
 20
10.862851
 30
0.0
  0
SPLINE
  5
117
100
AcDbEntity
  8
0
 62
7
100
AcDbSpline
 70
8
 71
3
 72
8
 73
4
 74
0
 40
0
 40
0
 40
0
 40
0
 40
1
 40
1
 40
1
 40
1
 10
49.731997
 20
10.862851
 30
0.0
 10
49.078421
 20
10.387521
 30
0.0
 10
46.744772
 20
9.829651
 30
0.0
 10
45.480210
 20
9.840051
 30
0.0
  0
SPLINE
  5
118
100
AcDbEntity
  8
0
 62
7
100
AcDbSpline
 70
8
 71
3
 72
8
 73
4
 74
0
 40
0
 40
0
 40
0
 40
0
 40
1
 40
1
 40
1
 40
1
 10
45.480210
 20
9.840051
 30
0.0
 10
42.283490
 20
9.872551
 30
0.0
 10
39.619353
 20
10.891401
 30
0.0
 10
37.488127
 20
12.994191
 30
0.0
  0
SPLINE
  5
119
100
AcDbEntity
  8
0
 62
7
100
AcDbSpline
 70
8
 71
3
 72
8
 73
4
 74
0
 40
0
 40
0
 40
0
 40
0
 40
1
 40
1
 40
1
 40
1
 10
37.488127
 20
12.994191
 30
0.0
 10
35.356915
 20
15.097021
 30
0.0
 10
34.291300
 20
17.732661
 30
0.0
 10
34.291300
 20
20.901051
 30
0.0
  0
SPLINE
  5
11a
100
AcDbEntity
  8
0
 62
7
100
AcDbSpline
 70
8
 71
3
 72
8
 73
4
 74
0
 40
0
 40
0
 40
0
 40
0
 40
1
 40
1
 40
1
 40
1
 10
34.291300
 20
20.901051
 30
0.0
 10
34.291300
 20
23.984201
 30
0.0
 10
35.364019
 20
26.598481
 30
0.0
 10
37.509451
 20
28.743981
 30
0.0
  0
SPLINE
  5
11b
100
AcDbEntity
  8
0
 62
7
100
AcDbSpline
 70
8
 71
3
 72
8
 73
4
 74
0
 40
0
 40
0
 40
0
 40
0
 40
1
 40
1
 40
1
 40
1
 10
37.509451
 20
28.743981
 30
0.0
 10
39.669076
 20
30.889481
 30
0.0
 10
42.290478
 20
31.962191
 30
0.0
 10
45.373655
 20
31.962191
 30
0.0
  0
SPLINE
  5
11c
100
AcDbEntity
  8
0
 62
7
100
AcDbSpline
 70
8
 71
3
 72
8
 73
4
 74
0
 40
0
 40
0
 40
0
 40
0
 40
1
 40
1
 40
1
 40
1
 10
45.373655
 20
31.962191
 30
0.0
 10
48.812020
 20
31.962191
 30
0.0
 10
51.518667
 20
30.953831
 30
0.0
 10
53.493595
 20
28.935771
 30
0.0
  0
SPLINE
  5
11d
100
AcDbEntity
  8
0
 62
7
100
AcDbSpline
 70
8
 71
3
 72
8
 73
4
 74
0
 40
0
 40
0
 40
0
 40
0
 40
1
 40
1
 40
1
 40
1
 10
53.493595
 20
28.935771
 30
0.0
 10
55.482734
 20
26.932431
 30
0.0
 10
56.477306
 20
24.190291
 30
0.0
 10
56.477306
 20
20.709301
 30
0.0
  0
LINE
  5
11e
100
AcDbEntity
  8
0
 62
7
100
AcDbLine
 10
56.477306
 20
20.709301
 30
0.0
 11
56.477306
 21
9.805421
 31
0.0
  0
LINE
  5
11f
100
AcDbEntity
  8
0
 62
7
100
AcDbLine
 10
56.477306
 20
9.805421
 30
0.0
 11
48.506542
 21
9.805421
 31
0.0
  0
LINE
  5
120
100
AcDbEntity
  8
0
 62
7
100
AcDbLine
 10
48.506542
 20
9.805421
 30
0.0
 11
48.506542
 21
20.133881
 31
0.0
  0
SPLINE
  5
121
100
AcDbEntity
  8
0
 62
7
100
AcDbSpline
 70
8
 71
3
 72
8
 73
4
 74
0
 40
0
 40
0
 40
0
 40
0
 40
1
 40
1
 40
1
 40
1
 10
48.506542
 20
20.133881
 30
0.0
 10
48.506542
 20
21.256361
 30
0.0
 10
48.229510
 20
22.151391
 30
0.0
 10
47.675320
 20
22.819201
 30
0.0
  0
SPLINE
  5
122
100
AcDbEntity
  8
0
 62
7
100
AcDbSpline
 70
8
 71
3
 72
8
 73
4
 74
0
 40
0
 40
0
 40
0
 40
0
 40
1
 40
1
 40
1
 40
1
 10
47.675320
 20
22.819201
 30
0.0
 10
47.135360
 20
23.486311
 30
0.0
 10
46.403674
 20
23.820361
 30
0.0
 10
45.480159
 20
23.820361
 30
0.0
  0
SPLINE
  5
123
100
AcDbEntity
  8
0
 62
7
100
AcDbSpline
 70
8
 71
3
 72
8
 73
4
 74
0
 40
0
 40
0
 40
0
 40
0
 40
1
 40
1
 40
1
 40
1
 10
45.480159
 20
23.820361
 30
0.0
 10
44.641922
 20
23.820361
 30
0.0
 10
43.917265
 20
23.515331
 30
0.0
 10
43.306313
 20
22.903741
 30
0.0
  0
SPLINE
  5
124
100
AcDbEntity
  8
0
 62
7
100
AcDbSpline
 70
8
 71
3
 72
8
 73
4
 74
0
 40
0
 40
0
 40
0
 40
0
 40
1
 40
1
 40
1
 40
1
 10
43.306313
 20
22.903741
 30
0.0
 10
42.695422
 20
22.292341
 30
0.0
 10
42.389925
 20
21.568031
 30
0.0
 10
42.389925
 20
20.729921
 30
0.0
  0
SPLINE
  5
125
100
AcDbEntity
  8
0
 62
7
100
AcDbSpline
 70
8
 71
3
 72
8
 73
4
 74
0
 40
0
 40
0
 40
0
 40
0
 40
1
 40
1
 40
1
 40
1
 10
42.389925
 20
20.729921
 30
0.0
 10
42.389925
 20
19.849381
 30
0.0
 10
42.666957
 20
19.124371
 30
0.0
 10
43.221147
 20
18.556051
 30
0.0
  0
SPLINE
  5
126
100
AcDbEntity
  8
0
 62
7
100
AcDbSpline
 70
8
 71
3
 72
8
 73
4
 74
0
 40
0
 40
0
 40
0
 40
0
 40
1
 40
1
 40
1
 40
1
 10
43.221147
 20
18.556051
 30
0.0
 10
43.775332
 20
17.987961
 30
0.0
 10
44.478595
 20
17.703411
 30
0.0
 10
45.331049
 20
17.703411
 30
0.0
  0
SPLINE
  5
127
100
AcDbEntity
  8
0
 62
7
100
AcDbSpline
 70
8
 71
3
 72
8
 73
4
 74
0
 40
0
 40
0
 40
0
 40
0
 40
1
 40
1
 40
1
 40
1
 10
45.331049
 20
17.703411
 30
0.0
 10
46.253421
 20
17.703411
 30
0.0
 10
47.851377
 20
17.935551
 30
0.0
 10
48.772984
 20
19.579451
 30
0.0
  0
LINE
  5
128
100
AcDbEntity
  8
0
 62
7
100
AcDbLine
 10
48.772984
 20
19.579451
 30
0.0
 11
49.572194
 21
18.556561
 31
0.0
  0
LINE
  5
129
100
AcDbEntity
  8
0
 62
7
100
AcDbLine
 10
63.937049
 20
0.082271
 30
0.0
 11
63.915249
 21
7.189981
 31
0.0
  0
SPLINE
  5
12a
100
AcDbEntity
  8
0
 62
7
100
AcDbSpline
 70
8
 71
3
 72
8
 73
4
 74
0
 40
0
 40
0
 40
0
 40
0
 40
1
 40
1
 40
1
 40
1
 10
63.915249
 20
7.189981
 30
0.0
 10
63.915249
 20
7.189981
 30
0.0
 10
65.896859
 20
7.222481
 30
0.0
 10
66.706719
 20
7.222481
 30
0.0
  0
SPLINE
  5
12b
100
AcDbEntity
  8
0
 62
7
100
AcDbSpline
 70
8
 71
3
 72
8
 73
4
 74
0
 40
0
 40
0
 40
0
 40
0
 40
1
 40
1
 40
1
 40
1
 10
66.706719
 20
7.222481
 30
0.0
 10
69.292609
 20
7.222481
 30
0.0
 10
70.969159
 20
8.678811
 30
0.0
 10
71.736399
 20
11.591521
 30
0.0
  0
SPLINE
  5
12c
100
AcDbEntity
  8
0
 62
7
100
AcDbSpline
 70
8
 71
3
 72
8
 73
4
 74
0
 40
0
 40
0
 40
0
 40
0
 40
1
 40
1
 40
1
 40
1
 10
71.736399
 20
11.591521
 30
0.0
 10
70.344009
 20
10.767721
 30
0.0
 10
68.980029
 20
10.355391
 30
0.0
 10
67.644459
 20
10.355391
 30
0.0
  0
SPLINE
  5
12d
100
AcDbEntity
  8
0
 62
7
100
AcDbSpline
 70
8
 71
3
 72
8
 73
4
 74
0
 40
0
 40
0
 40
0
 40
0
 40
1
 40
1
 40
1
 40
1
 10
67.644459
 20
10.355391
 30
0.0
 10
65.669529
 20
10.355391
 30
0.0
 10
64.042689
 20
11.087421
 30
0.0
 10
62.763959
 20
12.550571
 30
0.0
  0
SPLINE
  5
12e
100
AcDbEntity
  8
0
 62
7
100
AcDbSpline
 70
8
 71
3
 72
8
 73
4
 74
0
 40
0
 40
0
 40
0
 40
0
 40
1
 40
1
 40
1
 40
1
 10
62.763959
 20
12.550571
 30
0.0
 10
61.485229
 20
14.028171
 30
0.0
 10
60.845864
 20
15.903651
 30
0.0
 10
60.845864
 20
18.176971
 30
0.0
  0
LINE
  5
12f
100
AcDbEntity
  8
0
 62
7
100
AcDbLine
 10
60.845864
 20
18.176971
 30
0.0
 11
60.845864
 21
31.539701
 31
0.0
  0
LINE
  5
130
100
AcDbEntity
  8
0
 62
7
100
AcDbLine
 10
60.845864
 20
31.539701
 30
0.0
 11
68.816639
 21
31.539701
 31
0.0
  0
LINE
  5
131
100
AcDbEntity
  8
0
 62
7
100
AcDbLine
 10
68.816639
 20
31.539701
 30
0.0
 11
68.816639
 21
20.116381
 31
0.0
  0
SPLINE
  5
132
100
AcDbEntity
  8
0
 62
7
100
AcDbSpline
 70
8
 71
3
 72
8
 73
4
 74
0
 40
0
 40
0
 40
0
 40
0
 40
1
 40
1
 40
1
 40
1
 10
68.816639
 20
20.116381
 30
0.0
 10
68.816639
 20
18.851791
 30
0.0
 10
69.342359
 20
18.219541
 30
0.0
 10
70.393739
 20
18.219541
 30
0.0
  0
SPLINE
  5
133
100
AcDbEntity
  8
0
 62
7
100
AcDbSpline
 70
8
 71
3
 72
8
 73
4
 74
0
 40
0
 40
0
 40
0
 40
0
 40
1
 40
1
 40
1
 40
1
 10
70.393739
 20
18.219541
 30
0.0
 10
71.402509
 20
18.219541
 30
0.0
 10
71.906909
 20
18.915491
 30
0.0
 10
71.906909
 20
20.308221
 30
0.0
  0
LINE
  5
134
100
AcDbEntity
  8
0
 62
7
100
AcDbLine
 10
71.906909
 20
20.308221
 30
0.0
 11
71.906909
 21
31.539701
 31
0.0
  0
LINE
  5
135
100
AcDbEntity
  8
0
 62
7
100
AcDbLine
 10
71.906909
 20
31.539701
 30
0.0
 11
79.877659
 21
31.539701
 31
0.0
  0
LINE
  5
136
100
AcDbEntity
  8
0
 62
7
100
AcDbLine
 10
79.877659
 20
31.539701
 30
0.0
 11
79.877659
 21
12.571841
 31
0.0
  0
SPLINE
  5
137
100
AcDbEntity
  8
0
 62
7
100
AcDbSpline
 70
8
 71
3
 72
8
 73
4
 74
0
 40
0
 40
0
 40
0
 40
0
 40
1
 40
1
 40
1
 40
1
 10
79.877659
 20
12.571841
 30
0.0
 10
79.877659
 20
9.034031
 30
0.0
 10
78.883119
 20
6.178231
 30
0.0
 10
76.893959
 20
4.004411
 30
0.0
  0
SPLINE
  5
138
100
AcDbEntity
  8
0
 62
7
100
AcDbSpline
 70
8
 71
3
 72
8
 73
4
 74
0
 40
0
 40
0
 40
0
 40
0
 40
1
 40
1
 40
1
 40
1
 10
76.893959
 20
4.004411
 30
0.0
 10
74.521199
 20
1.418451
 30
0.0
 10
71.646659
 20
0.299461
 30
0.0
 10
68.283819
 20
0.125491
 30
0.0
  0
SPLINE
  5
139
100
AcDbEntity
  8
0
 62
7
100
AcDbSpline
 70
8
 71
3
 72
8
 73
4
 74
0
 40
0
 40
0
 40
0
 40
0
 40
1
 40
1
 40
1
 40
1
 10
68.283819
 20
0.125491
 30
0.0
 10
66.807599
 20
0.053491
 30
0.0
 10
63.936559
 20
0.083691
 30
0.0
 10
63.936559
 20
0.083691
 30
0.0
  0
LINE
  5
13a
100
AcDbEntity
  8
0
 62
7
100
AcDbLine
 10
63.936559
 20
0.083691
 30
0.0
 11
63.937049
 21
0.082271
 31
0.0
  0
LINE
  5
13b
100
AcDbEntity
  8
0
 62
7
100
AcDbLine
 10
98.824709
 20
39.506405
 30
0.0
 11
98.824709
 21
31.216011
 31
0.0
  0
SPLINE
  5
13c
100
AcDbEntity
  8
0
 62
7
100
AcDbSpline
 70
8
 71
3
 72
8
 73
4
 74
0
 40
0
 40
0
 40
0
 40
0
 40
1
 40
1
 40
1
 40
1
 10
98.824709
 20
31.216011
 30
0.0
 10
98.199549
 20
31.428958
 30
0.0
 10
97.716469
 20
31.535431
 30
0.0
 10
97.375469
 20
31.535431
 30
0.0
  0
SPLINE
  5
13d
100
AcDbEntity
  8
0
 62
7
100
AcDbSpline
 70
8
 71
3
 72
8
 73
4
 74
0
 40
0
 40
0
 40
0
 40
0
 40
1
 40
1
 40
1
 40
1
 10
97.375469
 20
31.535431
 30
0.0
 10
96.721929
 20
31.535431
 30
0.0
 10
96.160709
 20
31.293821
 30
0.0
 10
95.691809
 20
30.810601
 30
0.0
  0
SPLINE
  5
13e
100
AcDbEntity
  8
0
 62
7
100
AcDbSpline
 70
8
 71
3
 72
8
 73
4
 74
0
 40
0
 40
0
 40
0
 40
0
 40
1
 40
1
 40
1
 40
1
 10
95.691809
 20
30.810601
 30
0.0
 10
95.222962
 20
30.327388
 30
0.0
 10
94.988539
 20
29.744894
 30
0.0
 10
94.988539
 20
29.063121
 30
0.0
  0
SPLINE
  5
13f
100
AcDbEntity
  8
0
 62
7
100
AcDbSpline
 70
8
 71
3
 72
8
 73
4
 74
0
 40
0
 40
0
 40
0
 40
0
 40
1
 40
1
 40
1
 40
1
 10
94.988539
 20
29.063121
 30
0.0
 10
94.988539
 20
28.480241
 30
0.0
 10
95.244269
 20
27.741398
 30
0.0
 10
95.755729
 20
26.846591
 30
0.0
  0
LINE
  5
140
100
AcDbEntity
  8
0
 62
7
100
AcDbLine
 10
95.755729
 20
26.846591
 30
0.0
 11
96.416419
 21
25.695741
 31
0.0
  0
SPLINE
  5
141
100
AcDbEntity
  8
0
 62
7
100
AcDbSpline
 70
8
 71
3
 72
8
 73
4
 74
0
 40
0
 40
0
 40
0
 40
0
 40
1
 40
1
 40
1
 40
1
 10
96.416419
 20
25.695741
 30
0.0
 10
97.609906
 20
23.621334
 30
0.0
 10
98.206649
 20
21.617978
 30
0.0
 10
98.206649
 20
19.685671
 30
0.0
  0
SPLINE
  5
142
100
AcDbEntity
  8
0
 62
7
100
AcDbSpline
 70
8
 71
3
 72
8
 73
4
 74
0
 40
0
 40
0
 40
0
 40
0
 40
1
 40
1
 40
1
 40
1
 10
98.206649
 20
19.685671
 30
0.0
 10
98.206649
 20
16.858311
 30
0.0
 10
97.197872
 20
14.464238
 30
0.0
 10
95.180319
 20
12.503451
 30
0.0
  0
SPLINE
  5
143
100
AcDbEntity
  8
0
 62
7
100
AcDbSpline
 70
8
 71
3
 72
8
 73
4
 74
0
 40
0
 40
0
 40
0
 40
0
 40
1
 40
1
 40
1
 40
1
 10
95.180319
 20
12.503451
 30
0.0
 10
93.176972
 20
10.542764
 30
0.0
 10
90.726066
 20
9.562421
 30
0.0
 10
87.827599
 20
9.562421
 30
0.0
  0
SPLINE
  5
144
100
AcDbEntity
  8
0
 62
7
100
AcDbSpline
 70
8
 71
3
 72
8
 73
4
 74
0
 40
0
 40
0
 40
0
 40
0
 40
1
 40
1
 40
1
 40
1
 10
87.827599
 20
9.562421
 30
0.0
 10
86.435206
 20
9.562421
 30
0.0
 10
85.057019
 20
9.882041
 30
0.0
 10
83.693039
 20
10.521281
 30
0.0
  0
LINE
  5
145
100
AcDbEntity
  8
0
 62
7
100
AcDbLine
 10
83.693039
 20
10.521281
 30
0.0
 11
83.693039
 21
18.939541
 31
0.0
  0
SPLINE
  5
146
100
AcDbEntity
  8
0
 62
7
100
AcDbSpline
 70
8
 71
3
 72
8
 73
4
 74
0
 40
0
 40
0
 40
0
 40
0
 40
1
 40
1
 40
1
 40
1
 10
83.693039
 20
18.939541
 30
0.0
 10
84.517112
 20
18.413701
 30
0.0
 10
85.248829
 20
18.150781
 30
0.0
 10
85.888189
 20
18.150781
 30
0.0
  0
SPLINE
  5
147
100
AcDbEntity
  8
0
 62
7
100
AcDbSpline
 70
8
 71
3
 72
8
 73
4
 74
0
 40
0
 40
0
 40
0
 40
0
 40
1
 40
1
 40
1
 40
1
 10
85.888189
 20
18.150781
 30
0.0
 10
86.641222
 20
18.150781
 30
0.0
 10
87.266382
 20
18.363868
 30
0.0
 10
87.763669
 20
18.790041
 30
0.0
  0
SPLINE
  5
148
100
AcDbEntity
  8
0
 62
7
100
AcDbSpline
 70
8
 71
3
 72
8
 73
4
 74
0
 40
0
 40
0
 40
0
 40
0
 40
1
 40
1
 40
1
 40
1
 10
87.763669
 20
18.790041
 30
0.0
 10
88.275136
 20
19.230641
 30
0.0
 10
88.530869
 20
19.777664
 30
0.0
 10
88.530869
 20
20.431111
 30
0.0
  0
SPLINE
  5
149
100
AcDbEntity
  8
0
 62
7
100
AcDbSpline
 70
8
 71
3
 72
8
 73
4
 74
0
 40
0
 40
0
 40
0
 40
0
 40
1
 40
1
 40
1
 40
1
 10
88.530869
 20
20.431111
 30
0.0
 10
88.530869
 20
20.857284
 30
0.0
 10
88.125936
 20
21.787908
 30
0.0
 10
87.316069
 20
23.222981
 30
0.0
  0
SPLINE
  5
14a
100
AcDbEntity
  8
0
 62
7
100
AcDbSpline
 70
8
 71
3
 72
8
 73
4
 74
0
 40
0
 40
0
 40
0
 40
0
 40
1
 40
1
 40
1
 40
1
 10
87.316069
 20
23.222981
 30
0.0
 10
86.023136
 20
25.496281
 30
0.0
 10
85.376669
 20
27.769598
 30
0.0
 10
85.376669
 20
30.042931
 30
0.0
  0
SPLINE
  5
14b
100
AcDbEntity
  8
0
 62
7
100
AcDbSpline
 70
8
 71
3
 72
8
 73
4
 74
0
 40
0
 40
0
 40
0
 40
0
 40
1
 40
1
 40
1
 40
1
 10
85.376669
 20
30.042931
 30
0.0
 10
85.376669
 20
32.785084
 30
0.0
 10
86.349926
 20
35.143624
 30
0.0
 10
88.296439
 20
37.118551
 30
0.0
  0
SPLINE
  5
14c
100
AcDbEntity
  8
0
 62
7
100
AcDbSpline
 70
8
 71
3
 72
8
 73
4
 74
0
 40
0
 40
0
 40
0
 40
0
 40
1
 40
1
 40
1
 40
1
 10
88.296439
 20
37.118551
 30
0.0
 10
90.257152
 20
39.107686
 30
0.0
 10
92.594389
 20
40.102254
 30
0.0
 10
95.308149
 20
40.102254
 30
0.0
  0
SPLINE
  5
14d
100
AcDbEntity
  8
0
 62
7
100
AcDbSpline
 70
8
 71
3
 72
8
 73
4
 74
0
 40
0
 40
0
 40
0
 40
0
 40
1
 40
1
 40
1
 40
1
 10
95.308149
 20
40.102254
 30
0.0
 10
96.501629
 20
40.102254
 30
0.0
 10
97.673802
 20
39.903266
 30
0.0
 10
98.824669
 20
39.505291
 30
0.0
  0
LINE
  5
14e
100
AcDbEntity
  8
0
 62
7
100
AcDbLine
 10
98.824669
 20
39.505291
 30
0.0
 11
98.824709
 21
39.506405
 31
0.0
  0
LINE
  5
14f
100
AcDbEntity
  8
0
 62
7
100
AcDbLine
 10
110.610359
 20
39.378544
 30
0.0
 11
110.610359
 21
30.491371
 31
0.0
  0
SPLINE
  5
150
100
AcDbEntity
  8
0
 62
7
100
AcDbSpline
 70
8
 71
3
 72
8
 73
4
 74
0
 40
0
 40
0
 40
0
 40
0
 40
1
 40
1
 40
1
 40
1
 10
110.610359
 20
30.491371
 30
0.0
 10
111.960132
 20
31.471758
 30
0.0
 10
113.309906
 20
31.961951
 30
0.0
 10
114.659679
 20
31.961951
 30
0.0
  0
SPLINE
  5
151
100
AcDbEntity
  8
0
 62
7
100
AcDbSpline
 70
8
 71
3
 72
8
 73
4
 74
0
 40
0
 40
0
 40
0
 40
0
 40
1
 40
1
 40
1
 40
1
 10
114.659679
 20
31.961951
 30
0.0
 10
116.705652
 20
31.961951
 30
0.0
 10
118.325379
 20
31.223108
 30
0.0
 10
119.518859
 20
29.745421
 30
0.0
  0
SPLINE
  5
152
100
AcDbEntity
  8
0
 62
7
100
AcDbSpline
 70
8
 71
3
 72
8
 73
4
 74
0
 40
0
 40
0
 40
0
 40
0
 40
1
 40
1
 40
1
 40
1
 10
119.518859
 20
29.745421
 30
0.0
 10
120.726552
 20
28.267821
 30
0.0
 10
121.330399
 20
26.271598
 30
0.0
 10
121.330399
 20
23.756751
 30
0.0
  0
LINE
  5
153
100
AcDbEntity
  8
0
 62
7
100
AcDbLine
 10
121.330399
 20
23.756751
 30
0.0
 11
121.330399
 21
10.287431
 31
0.0
  0
LINE
  5
154
100
AcDbEntity
  8
0
 62
7
100
AcDbLine
 10
121.330399
 20
10.287431
 30
0.0
 11
113.359629
 21
10.287431
 31
0.0
  0
LINE
  5
155
100
AcDbEntity
  8
0
 62
7
100
AcDbLine
 10
113.359629
 20
10.287431
 30
0.0
 11
113.359629
 21
21.518951
 31
0.0
  0
SPLINE
  5
156
100
AcDbEntity
  8
0
 62
7
100
AcDbSpline
 70
8
 71
3
 72
8
 73
4
 74
0
 40
0
 40
0
 40
0
 40
0
 40
1
 40
1
 40
1
 40
1
 10
113.359629
 20
21.518951
 30
0.0
 10
113.359629
 20
22.428278
 30
0.0
 10
113.260166
 20
23.039201
 30
0.0
 10
113.061239
 20
23.351721
 30
0.0
  0
SPLINE
  5
157
100
AcDbEntity
  8
0
 62
7
100
AcDbSpline
 70
8
 71
3
 72
8
 73
4
 74
0
 40
0
 40
0
 40
0
 40
0
 40
1
 40
1
 40
1
 40
1
 10
113.061239
 20
23.351721
 30
0.0
 10
112.876552
 20
23.664488
 30
0.0
 10
112.507142
 20
23.820871
 30
0.0
 10
111.953009
 20
23.820871
 30
0.0
  0
SPLINE
  5
158
100
AcDbEntity
  8
0
 62
7
100
AcDbSpline
 70
8
 71
3
 72
8
 73
4
 74
0
 40
0
 40
0
 40
0
 40
0
 40
1
 40
1
 40
1
 40
1
 10
111.953009
 20
23.820871
 30
0.0
 10
111.057902
 20
23.820871
 30
0.0
 10
110.610349
 20
23.160178
 30
0.0
 10
110.610349
 20
21.838791
 30
0.0
  0
LINE
  5
159
100
AcDbEntity
  8
0
 62
7
100
AcDbLine
 10
110.610349
 20
21.838791
 30
0.0
 11
110.610349
 21
10.287611
 31
0.0
  0
LINE
  5
15a
100
AcDbEntity
  8
0
 62
7
100
AcDbLine
 10
110.610349
 20
10.287611
 30
0.0
 11
102.639579
 21
10.287611
 31
0.0
  0
LINE
  5
15b
100
AcDbEntity
  8
0
 62
7
100
AcDbLine
 10
102.639579
 20
10.287611
 30
0.0
 11
102.639579
 21
39.378776
 31
0.0
  0
LINE
  5
15c
100
AcDbEntity
  8
0
 62
7
100
AcDbLine
 10
102.639579
 20
39.378776
 30
0.0
 11
110.610359
 21
39.378544
 31
0.0
  0
LINE
  5
15d
100
AcDbEntity
  8
0
 62
7
100
AcDbLine
 10
133.968539
 20
31.535611
 30
0.0
 11
133.968539
 21
4.490501
 31
0.0
  0
LINE
  5
15e
100
AcDbEntity
  8
0
 62
7
100
AcDbLine
 10
133.968539
 20
4.490501
 30
0.0
 11
125.997769
 21
4.490501
 31
0.0
  0
LINE
  5
15f
100
AcDbEntity
  8
0
 62
7
100
AcDbLine
 10
125.997769
 20
4.490501
 30
0.0
 11
125.997769
 21
31.535611
 31
0.0
  0
LINE
  5
160
100
AcDbEntity
  8
0
 62
7
100
AcDbLine
 10
125.997769
 20
31.535611
 30
0.0
 11
133.968539
 21
31.535611
 31
0.0
  0
SPLINE
  5
161
100
AcDbEntity
  8
0
 62
7
100
AcDbSpline
 70
8
 71
3
 72
8
 73
4
 74
0
 40
0
 40
0
 40
0
 40
0
 40
1
 40
1
 40
1
 40
1
 10
130.004469
 20
41.019566
 30
0.0
 10
131.084289
 20
41.019566
 30
0.0
 10
132.014919
 20
40.636076
 30
0.0
 10
132.796369
 20
39.868724
 30
0.0
  0
SPLINE
  5
162
100
AcDbEntity
  8
0
 62
7
100
AcDbSpline
 70
8
 71
3
 72
8
 73
4
 74
0
 40
0
 40
0
 40
0
 40
0
 40
1
 40
1
 40
1
 40
1
 10
132.796369
 20
39.868724
 30
0.0
 10
133.592019
 20
39.116044
 30
0.0
 10
133.989849
 20
38.220601
 30
0.0
 10
133.989849
 20
37.183361
 30
0.0
  0
SPLINE
  5
163
100
AcDbEntity
  8
0
 62
7
100
AcDbSpline
 70
8
 71
3
 72
8
 73
4
 74
0
 40
0
 40
0
 40
0
 40
0
 40
1
 40
1
 40
1
 40
1
 10
133.989849
 20
37.183361
 30
0.0
 10
133.989849
 20
36.075101
 30
0.0
 10
133.613319
 20
35.165821
 30
0.0
 10
132.860299
 20
34.455431
 30
0.0
  0
SPLINE
  5
164
100
AcDbEntity
  8
0
 62
7
100
AcDbSpline
 70
8
 71
3
 72
8
 73
4
 74
0
 40
0
 40
0
 40
0
 40
0
 40
1
 40
1
 40
1
 40
1
 10
132.860299
 20
34.455431
 30
0.0
 10
132.121459
 20
33.745041
 30
0.0
 10
131.169539
 20
33.389831
 30
0.0
 10
130.004469
 20
33.389831
 30
0.0
  0
SPLINE
  5
165
100
AcDbEntity
  8
0
 62
7
100
AcDbSpline
 70
8
 71
3
 72
8
 73
4
 74
0
 40
0
 40
0
 40
0
 40
0
 40
1
 40
1
 40
1
 40
1
 10
130.004469
 20
33.389831
 30
0.0
 10
128.839409
 20
33.389831
 30
0.0
 10
127.880349
 20
33.744531
 30
0.0
 10
127.127319
 20
34.455431
 30
0.0
  0
SPLINE
  5
166
100
AcDbEntity
  8
0
 62
7
100
AcDbSpline
 70
8
 71
3
 72
8
 73
4
 74
0
 40
0
 40
0
 40
0
 40
0
 40
1
 40
1
 40
1
 40
1
 10
127.127319
 20
34.455431
 30
0.0
 10
126.388479
 20
35.165821
 30
0.0
 10
126.019079
 20
36.075101
 30
0.0
 10
126.019079
 20
37.183361
 30
0.0
  0
SPLINE
  5
167
100
AcDbEntity
  8
0
 62
7
100
AcDbSpline
 70
8
 71
3
 72
8
 73
4
 74
0
 40
0
 40
0
 40
0
 40
0
 40
1
 40
1
 40
1
 40
1
 10
126.019079
 20
37.183361
 30
0.0
 10
126.019079
 20
38.220601
 30
0.0
 10
126.409859
 20
39.115719
 30
0.0
 10
127.191249
 20
39.868724
 30
0.0
  0
SPLINE
  5
168
100
AcDbEntity
  8
0
 62
7
100
AcDbSpline
 70
8
 71
3
 72
8
 73
4
 74
0
 40
0
 40
0
 40
0
 40
0
 40
1
 40
1
 40
1
 40
1
 10
127.191249
 20
39.868724
 30
0.0
 10
127.986909
 20
40.635798
 30
0.0
 10
128.924649
 20
41.019566
 30
0.0
 10
130.004469
 20
41.019566
 30
0.0
  0
LINE
  5
169
100
AcDbEntity
  8
0
 62
7
100
AcDbLine
 10
130.004469
 20
41.019566
 30
0.0
 11
130.004469
 21
41.019566
 31
0.0
  0
SPLINE
  5
16a
100
AcDbEntity
  8
0
 62
7
100
AcDbSpline
 70
8
 71
3
 72
8
 73
4
 74
0
 40
0
 40
0
 40
0
 40
0
 40
1
 40
1
 40
1
 40
1
 10
144.603329
 20
19.835261
 30
0.0
 10
145.995722
 20
19.835261
 30
0.0
 10
147.189202
 20
19.330874
 30
0.0
 10
148.183769
 20
18.322101
 30
0.0
  0
SPLINE
  5
16b
100
AcDbEntity
  8
0
 62
7
100
AcDbSpline
 70
8
 71
3
 72
8
 73
4
 74
0
 40
0
 40
0
 40
0
 40
0
 40
1
 40
1
 40
1
 40
1
 10
148.183769
 20
18.322101
 30
0.0
 10
149.192549
 20
17.313328
 30
0.0
 10
149.696939
 20
16.112748
 30
0.0
 10
149.696939
 20
14.720361
 30
0.0
  0
SPLINE
  5
16c
100
AcDbEntity
  8
0
 62
7
100
AcDbSpline
 70
8
 71
3
 72
8
 73
4
 74
0
 40
0
 40
0
 40
0
 40
0
 40
1
 40
1
 40
1
 40
1
 10
149.696939
 20
14.720361
 30
0.0
 10
149.696939
 20
13.327908
 30
0.0
 10
149.199656
 20
12.141534
 30
0.0
 10
148.205089
 20
11.161241
 30
0.0
  0
SPLINE
  5
16d
100
AcDbEntity
  8
0
 62
7
100
AcDbSpline
 70
8
 71
3
 72
8
 73
4
 74
0
 40
0
 40
0
 40
0
 40
0
 40
1
 40
1
 40
1
 40
1
 10
148.205089
 20
11.161241
 30
0.0
 10
147.210516
 20
10.195081
 30
0.0
 10
146.009929
 20
9.712001
 30
0.0
 10
144.603329
 20
9.712001
 30
0.0
  0
SPLINE
  5
16e
100
AcDbEntity
  8
0
 62
7
100
AcDbSpline
 70
8
 71
3
 72
8
 73
4
 74
0
 40
0
 40
0
 40
0
 40
0
 40
1
 40
1
 40
1
 40
1
 10
144.603329
 20
9.712001
 30
0.0
 10
143.139889
 20
9.712001
 30
0.0
 10
141.932196
 20
10.180841
 30
0.0
 10
140.980249
 20
11.118521
 30
0.0
  0
SPLINE
  5
16f
100
AcDbEntity
  8
0
 62
7
100
AcDbSpline
 70
8
 71
3
 72
8
 73
4
 74
0
 40
0
 40
0
 40
0
 40
0
 40
1
 40
1
 40
1
 40
1
 10
140.980249
 20
11.118521
 30
0.0
 10
140.042509
 20
12.070534
 30
0.0
 10
139.573639
 20
13.278234
 30
0.0
 10
139.573639
 20
14.741621
 30
0.0
  0
SPLINE
  5
170
100
AcDbEntity
  8
0
 62
7
100
AcDbSpline
 70
8
 71
3
 72
8
 73
4
 74
0
 40
0
 40
0
 40
0
 40
0
 40
1
 40
1
 40
1
 40
1
 10
139.573639
 20
14.741621
 30
0.0
 10
139.573639
 20
16.162454
 30
0.0
 10
140.063822
 20
17.363068
 30
0.0
 10
141.044189
 20
18.343461
 30
0.0
  0
SPLINE
  5
171
100
AcDbEntity
  8
0
 62
7
100
AcDbSpline
 70
8
 71
3
 72
8
 73
4
 74
0
 40
0
 40
0
 40
0
 40
0
 40
1
 40
1
 40
1
 40
1
 10
141.044189
 20
18.343461
 30
0.0
 10
142.024549
 20
19.337994
 30
0.0
 10
143.210929
 20
19.835261
 30
0.0
 10
144.603329
 20
19.835261
 30
0.0
  0
LINE
  5
172
100
AcDbEntity
  8
0
 62
7
100
AcDbLine
 10
144.603329
 20
19.835261
 30
0.0
 11
144.603329
 21
19.835261
 31
0.0
  0
LINE
  5
173
100
AcDbEntity
  8
0
 62
7
100
AcDbLine
 10
155.238119
 20
4.234781
 30
0.0
 11
155.238119
 21
29.170001
 31
0.0
  0
SPLINE
  5
174
100
AcDbEntity
  8
0
 62
7
100
AcDbSpline
 70
8
 71
3
 72
8
 73
4
 74
0
 40
0
 40
0
 40
0
 40
0
 40
1
 40
1
 40
1
 40
1
 10
155.238119
 20
29.170001
 30
0.0
 10
155.238119
 20
32.480601
 30
0.0
 10
156.225539
 20
35.130341
 30
0.0
 10
158.200509
 20
37.119431
 30
0.0
  0
SPLINE
  5
175
100
AcDbEntity
  8
0
 62
7
100
AcDbSpline
 70
8
 71
3
 72
8
 73
4
 74
0
 40
0
 40
0
 40
0
 40
0
 40
1
 40
1
 40
1
 40
1
 10
158.200509
 20
37.119431
 30
0.0
 10
160.189649
 20
39.108615
 30
0.0
 10
162.832359
 20
40.103183
 30
0.0
 10
166.128649
 20
40.103183
 30
0.0
  0
SPLINE
  5
176
100
AcDbEntity
  8
0
 62
7
100
AcDbSpline
 70
8
 71
3
 72
8
 73
4
 74
0
 40
0
 40
0
 40
0
 40
0
 40
1
 40
1
 40
1
 40
1
 10
166.128649
 20
40.103183
 30
0.0
 10
169.410729
 20
40.103183
 30
0.0
 10
171.918479
 20
39.137075
 30
0.0
 10
173.651869
 20
37.204721
 30
0.0
  0
SPLINE
  5
177
100
AcDbEntity
  8
0
 62
7
100
AcDbSpline
 70
8
 71
3
 72
8
 73
4
 74
0
 40
0
 40
0
 40
0
 40
0
 40
1
 40
1
 40
1
 40
1
 10
173.651869
 20
37.204721
 30
0.0
 10
175.399479
 20
35.272411
 30
0.0
 10
176.273269
 20
32.494711
 30
0.0
 10
176.273269
 20
28.871611
 30
0.0
  0
LINE
  5
178
100
AcDbEntity
  8
0
 62
7
100
AcDbLine
 10
176.273269
 20
28.871611
 30
0.0
 11
176.273269
 21
4.234781
 31
0.0
  0
LINE
  5
179
100
AcDbEntity
  8
0
 62
7
100
AcDbLine
 10
176.273269
 20
4.234781
 30
0.0
 11
167.620509
 21
4.234781
 31
0.0
  0
LINE
  5
17a
100
AcDbEntity
  8
0
 62
7
100
AcDbLine
 10
167.620509
 20
4.234781
 30
0.0
 11
167.620509
 21
28.871611
 31
0.0
  0
SPLINE
  5
17b
100
AcDbEntity
  8
0
 62
7
100
AcDbSpline
 70
8
 71
3
 72
8
 73
4
 74
0
 40
0
 40
0
 40
0
 40
0
 40
1
 40
1
 40
1
 40
1
 10
167.620509
 20
28.871611
 30
0.0
 10
167.620509
 20
30.647601
 30
0.0
 10
166.988269
 20
31.535611
 30
0.0
 10
165.723719
 20
31.535611
 30
0.0
  0
SPLINE
  5
17c
100
AcDbEntity
  8
0
 62
7
100
AcDbSpline
 70
8
 71
3
 72
8
 73
4
 74
0
 40
0
 40
0
 40
0
 40
0
 40
1
 40
1
 40
1
 40
1
 10
165.723719
 20
31.535611
 30
0.0
 10
164.501819
 20
31.535611
 30
0.0
 10
163.890869
 20
30.647921
 30
0.0
 10
163.890869
 20
28.871611
 30
0.0
  0
LINE
  5
17d
100
AcDbEntity
  8
0
 62
7
100
AcDbLine
 10
163.890869
 20
28.871611
 30
0.0
 11
163.890869
 21
4.234781
 31
0.0
  0
LINE
  5
17e
100
AcDbEntity
  8
0
 62
7
100
AcDbLine
 10
163.890869
 20
4.234781
 30
0.0
 11
155.238119
 21
4.234781
 31
0.0
  0
SPLINE
  5
17f
100
AcDbEntity
  8
0
 62
7
100
AcDbSpline
 70
8
 71
3
 72
8
 73
4
 74
0
 40
0
 40
0
 40
0
 40
0
 40
1
 40
1
 40
1
 40
1
 10
191.063949
 20
31.983221
 30
0.0
 10
194.076076
 20
31.983221
 30
0.0
 10
196.654849
 20
30.896294
 30
0.0
 10
198.800269
 20
28.722441
 30
0.0
  0
SPLINE
  5
180
100
AcDbEntity
  8
0
 62
7
100
AcDbSpline
 70
8
 71
3
 72
8
 73
4
 74
0
 40
0
 40
0
 40
0
 40
0
 40
1
 40
1
 40
1
 40
1
 10
198.800269
 20
28.722441
 30
0.0
 10
200.959909
 20
26.562821
 30
0.0
 10
202.039729
 20
23.969851
 30
0.0
 10
202.039729
 20
20.943531
 30
0.0
  0
SPLINE
  5
181
100
AcDbEntity
  8
0
 62
7
100
AcDbSpline
 70
8
 71
3
 72
8
 73
4
 74
0
 40
0
 40
0
 40
0
 40
0
 40
1
 40
1
 40
1
 40
1
 10
202.039729
 20
20.943531
 30
0.0
 10
202.039729
 20
17.874524
 30
0.0
 10
200.945702
 20
15.260214
 30
0.0
 10
198.757649
 20
13.100601
 30
0.0
  0
SPLINE
  5
182
100
AcDbEntity
  8
0
 62
7
100
AcDbSpline
 70
8
 71
3
 72
8
 73
4
 74
0
 40
0
 40
0
 40
0
 40
0
 40
1
 40
1
 40
1
 40
1
 10
198.757649
 20
13.100601
 30
0.0
 10
196.583809
 20
10.940988
 30
0.0
 10
193.955302
 20
9.861181
 30
0.0
 10
190.872129
 20
9.861181
 30
0.0
  0
SPLINE
  5
183
100
AcDbEntity
  8
0
 62
7
100
AcDbSpline
 70
8
 71
3
 72
8
 73
4
 74
0
 40
0
 40
0
 40
0
 40
0
 40
1
 40
1
 40
1
 40
1
 10
190.872129
 20
9.861181
 30
0.0
 10
187.788969
 20
9.861181
 30
0.0
 10
185.153362
 20
10.940988
 30
0.0
 10
182.965309
 20
13.100601
 30
0.0
  0
SPLINE
  5
184
100
AcDbEntity
  8
0
 62
7
100
AcDbSpline
 70
8
 71
3
 72
8
 73
4
 74
0
 40
0
 40
0
 40
0
 40
0
 40
1
 40
1
 40
1
 40
1
 10
182.965309
 20
13.100601
 30
0.0
 10
180.777249
 20
15.274454
 30
0.0
 10
179.683219
 20
17.888764
 30
0.0
 10
179.683219
 20
20.943531
 30
0.0
  0
SPLINE
  5
185
100
AcDbEntity
  8
0
 62
7
100
AcDbSpline
 70
8
 71
3
 72
8
 73
4
 74
0
 40
0
 40
0
 40
0
 40
0
 40
1
 40
1
 40
1
 40
1
 10
179.683219
 20
20.943531
 30
0.0
 10
179.683219
 20
24.055091
 30
0.0
 10
180.777249
 20
26.669371
 30
0.0
 10
182.965309
 20
28.786371
 30
0.0
  0
SPLINE
  5
186
100
AcDbEntity
  8
0
 62
7
100
AcDbSpline
 70
8
 71
3
 72
8
 73
4
 74
0
 40
0
 40
0
 40
0
 40
0
 40
1
 40
1
 40
1
 40
1
 10
182.965309
 20
28.786371
 30
0.0
 10
185.153362
 20
30.917604
 30
0.0
 10
187.852909
 20
31.983221
 30
0.0
 10
191.063949
 20
31.983221
 30
0.0
  0
LINE
  5
187
100
AcDbEntity
  8
0
 62
7
100
AcDbLine
 10
191.063949
 20
31.983221
 30
0.0
 11
191.063949
 21
31.983221
 31
0.0
  0
SPLINE
  5
188
100
AcDbEntity
  8
0
 62
7
100
AcDbSpline
 70
8
 71
3
 72
8
 73
4
 74
0
 40
0
 40
0
 40
0
 40
0
 40
1
 40
1
 40
1
 40
1
 10
190.850849
 20
24.119021
 30
0.0
 10
189.998362
 20
24.119021
 30
0.0
 10
189.273746
 20
23.806271
 30
0.0
 10
188.676999
 20
23.180771
 30
0.0
  0
SPLINE
  5
189
100
AcDbEntity
  8
0
 62
7
100
AcDbSpline
 70
8
 71
3
 72
8
 73
4
 74
0
 40
0
 40
0
 40
0
 40
0
 40
1
 40
1
 40
1
 40
1
 10
188.676999
 20
23.180771
 30
0.0
 10
188.080232
 20
22.569724
 30
0.0
 10
187.781849
 20
21.816688
 30
0.0
 10
187.781849
 20
20.921661
 30
0.0
  0
SPLINE
  5
18a
100
AcDbEntity
  8
0
 62
7
100
AcDbSpline
 70
8
 71
3
 72
8
 73
4
 74
0
 40
0
 40
0
 40
0
 40
0
 40
1
 40
1
 40
1
 40
1
 10
187.781849
 20
20.921661
 30
0.0
 10
187.781849
 20
20.040748
 30
0.0
 10
188.080232
 20
19.287711
 30
0.0
 10
188.676999
 20
18.662551
 30
0.0
  0
SPLINE
  5
18b
100
AcDbEntity
  8
0
 62
7
100
AcDbSpline
 70
8
 71
3
 72
8
 73
4
 74
0
 40
0
 40
0
 40
0
 40
0
 40
1
 40
1
 40
1
 40
1
 10
188.676999
 20
18.662551
 30
0.0
 10
189.287926
 20
18.037764
 30
0.0
 10
190.012542
 20
17.725371
 30
0.0
 10
190.850849
 20
17.725371
 30
0.0
  0
SPLINE
  5
18c
100
AcDbEntity
  8
0
 62
7
100
AcDbSpline
 70
8
 71
3
 72
8
 73
4
 74
0
 40
0
 40
0
 40
0
 40
0
 40
1
 40
1
 40
1
 40
1
 10
190.850849
 20
17.725371
 30
0.0
 10
191.703329
 20
17.725371
 30
0.0
 10
192.427942
 20
18.037764
 30
0.0
 10
193.024689
 20
18.662551
 30
0.0
  0
SPLINE
  5
18d
100
AcDbEntity
  8
0
 62
7
100
AcDbSpline
 70
8
 71
3
 72
8
 73
4
 74
0
 40
0
 40
0
 40
0
 40
0
 40
1
 40
1
 40
1
 40
1
 10
193.024689
 20
18.662551
 30
0.0
 10
193.635616
 20
19.288051
 30
0.0
 10
193.941079
 20
20.041088
 30
0.0
 10
193.941079
 20
20.921661
 30
0.0
  0
SPLINE
  5
18e
100
AcDbEntity
  8
0
 62
7
100
AcDbSpline
 70
8
 71
3
 72
8
 73
4
 74
0
 40
0
 40
0
 40
0
 40
0
 40
1
 40
1
 40
1
 40
1
 10
193.941079
 20
20.921661
 30
0.0
 10
193.941079
 20
21.816754
 30
0.0
 10
193.642696
 20
22.569791
 30
0.0
 10
193.045929
 20
23.180771
 30
0.0
  0
SPLINE
  5
18f
100
AcDbEntity
  8
0
 62
7
100
AcDbSpline
 70
8
 71
3
 72
8
 73
4
 74
0
 40
0
 40
0
 40
0
 40
0
 40
1
 40
1
 40
1
 40
1
 10
193.045929
 20
23.180771
 30
0.0
 10
192.449162
 20
23.806271
 30
0.0
 10
191.717442
 20
24.119021
 30
0.0
 10
190.850769
 20
24.119021
 30
0.0
  0
LINE
  5
190
100
AcDbEntity
  8
0
 62
7
100
AcDbLine
 10
190.850769
 20
24.119021
 30
0.0
 11
190.850849
 21
24.119021
 31
0.0
  0
LINE
  5
191
100
AcDbEntity
  8
0
 62
7
100
AcDbLine
 10
207.730099
 20
39.378544
 30
0.0
 11
223.138819
 21
39.378544
 31
0.0
  0
LINE
  5
192
100
AcDbEntity
  8
0
 62
7
100
AcDbLine
 10
223.138819
 20
39.378544
 30
0.0
 11
218.386199
 21
28.189681
 31
0.0
  0
SPLINE
  5
193
100
AcDbEntity
  8
0
 62
7
100
AcDbSpline
 70
8
 71
3
 72
8
 73
4
 74
0
 40
0
 40
0
 40
0
 40
0
 40
1
 40
1
 40
1
 40
1
 10
218.386199
 20
28.189681
 30
0.0
 10
220.091172
 20
27.038781
 30
0.0
 10
221.327279
 20
25.774254
 30
0.0
 10
222.094519
 20
24.396101
 30
0.0
  0
SPLINE
  5
194
100
AcDbEntity
  8
0
 62
7
100
AcDbSpline
 70
8
 71
3
 72
8
 73
4
 74
0
 40
0
 40
0
 40
0
 40
0
 40
1
 40
1
 40
1
 40
1
 10
222.094519
 20
24.396101
 30
0.0
 10
222.875966
 20
23.032094
 30
0.0
 10
223.266689
 20
21.412351
 30
0.0
 10
223.266689
 20
19.536871
 30
0.0
  0
SPLINE
  5
195
100
AcDbEntity
  8
0
 62
7
100
AcDbSpline
 70
8
 71
3
 72
8
 73
4
 74
0
 40
0
 40
0
 40
0
 40
0
 40
1
 40
1
 40
1
 40
1
 10
223.266689
 20
19.536871
 30
0.0
 10
223.266689
 20
16.737891
 30
0.0
 10
222.236599
 20
14.372248
 30
0.0
 10
220.176419
 20
12.439941
 30
0.0
  0
SPLINE
  5
196
100
AcDbEntity
  8
0
 62
7
100
AcDbSpline
 70
8
 71
3
 72
8
 73
4
 74
0
 40
0
 40
0
 40
0
 40
0
 40
1
 40
1
 40
1
 40
1
 10
220.176419
 20
12.439941
 30
0.0
 10
218.116246
 20
10.521841
 30
0.0
 10
215.580096
 20
9.562791
 30
0.0
 10
212.567969
 20
9.562791
 30
0.0
  0
SPLINE
  5
197
100
AcDbEntity
  8
0
 62
7
100
AcDbSpline
 70
8
 71
3
 72
8
 73
4
 74
0
 40
0
 40
0
 40
0
 40
0
 40
1
 40
1
 40
1
 40
1
 10
212.567969
 20
9.562791
 30
0.0
 10
210.905616
 20
9.562791
 30
0.0
 10
209.257469
 20
9.875201
 30
0.0
 10
207.623529
 20
10.500021
 30
0.0
  0
LINE
  5
198
100
AcDbEntity
  8
0
 62
7
100
AcDbLine
 10
207.623529
 20
10.500021
 30
0.0
 11
207.623529
 21
18.726481
 31
0.0
  0
SPLINE
  5
199
100
AcDbEntity
  8
0
 62
7
100
AcDbSpline
 70
8
 71
3
 72
8
 73
4
 74
0
 40
0
 40
0
 40
0
 40
0
 40
1
 40
1
 40
1
 40
1
 10
207.623529
 20
18.726481
 30
0.0
 10
208.859636
 20
17.959254
 30
0.0
 10
209.932352
 20
17.575641
 30
0.0
 10
210.841679
 20
17.575641
 30
0.0
  0
SPLINE
  5
19a
100
AcDbEntity
  8
0
 62
7
100
AcDbSpline
 70
8
 71
3
 72
8
 73
4
 74
0
 40
0
 40
0
 40
0
 40
0
 40
1
 40
1
 40
1
 40
1
 10
210.841679
 20
17.575641
 30
0.0
 10
211.836246
 20
17.575641
 30
0.0
 10
212.667422
 20
17.930841
 30
0.0
 10
213.335209
 20
18.641241
 30
0.0
  0
SPLINE
  5
19b
100
AcDbEntity
  8
0
 62
7
100
AcDbSpline
 70
8
 71
3
 72
8
 73
4
 74
0
 40
0
 40
0
 40
0
 40
0
 40
1
 40
1
 40
1
 40
1
 10
213.335209
 20
18.641241
 30
0.0
 10
214.017209
 20
19.351674
 30
0.0
 10
214.358209
 20
20.232588
 30
0.0
 10
214.358209
 20
21.283981
 30
0.0
  0
SPLINE
  5
19c
100
AcDbEntity
  8
0
 62
7
100
AcDbSpline
 70
8
 71
3
 72
8
 73
4
 74
0
 40
0
 40
0
 40
0
 40
0
 40
1
 40
1
 40
1
 40
1
 10
214.358209
 20
21.283981
 30
0.0
 10
214.358209
 20
22.491681
 30
0.0
 10
213.853819
 20
23.450718
 30
0.0
 10
212.845039
 20
24.161091
 30
0.0
  0
SPLINE
  5
19d
100
AcDbEntity
  8
0
 62
7
100
AcDbSpline
 70
8
 71
3
 72
8
 73
4
 74
0
 40
0
 40
0
 40
0
 40
0
 40
1
 40
1
 40
1
 40
1
 10
212.845039
 20
24.161091
 30
0.0
 10
211.836259
 20
24.885724
 30
0.0
 10
210.486486
 20
25.248041
 30
0.0
 10
208.795719
 20
25.248041
 30
0.0
  0
LINE
  5
19e
100
AcDbEntity
  8
0
 62
7
100
AcDbLine
 10
208.795719
 20
25.248041
 30
0.0
 11
210.948259
 21
30.981041
 31
0.0
  0
LINE
  5
19f
100
AcDbEntity
  8
0
 62
7
100
AcDbLine
 10
210.948259
 20
30.981041
 30
0.0
 11
207.730119
 21
30.981041
 31
0.0
  0
LINE
  5
1a0
100
AcDbEntity
  8
0
 62
7
100
AcDbLine
 10
207.730119
 20
30.981041
 30
0.0
 11
207.730099
 21
39.378544
 31
0.0
  0
LINE
  5
1a1
100
AcDbEntity
  8
0
 62
7
100
AcDbLine
 10
225.593579
 20
21.646811
 30
0.0
 11
225.593579
 21
28.040511
 31
0.0
  0
SPLINE
  5
1a2
100
AcDbEntity
  8
0
 62
7
100
AcDbSpline
 70
8
 71
3
 72
8
 73
4
 74
0
 40
0
 40
0
 40
0
 40
0
 40
1
 40
1
 40
1
 40
1
 10
225.593579
 20
28.040511
 30
0.0
 10
225.593579
 20
31.763058
 30
0.0
 10
226.334556
 20
34.704141
 30
0.0
 10
227.816509
 20
36.863761
 30
0.0
  0
SPLINE
  5
1a3
100
AcDbEntity
  8
0
 62
7
100
AcDbSpline
 70
8
 71
3
 72
8
 73
4
 74
0
 40
0
 40
0
 40
0
 40
0
 40
1
 40
1
 40
1
 40
1
 10
227.816509
 20
36.863761
 30
0.0
 10
229.309856
 20
39.023376
 30
0.0
 10
231.338989
 20
40.103183
 30
0.0
 10
233.903909
 20
40.103183
 30
0.0
  0
SPLINE
  5
1a4
100
AcDbEntity
  8
0
 62
7
100
AcDbSpline
 70
8
 71
3
 72
8
 73
4
 74
0
 40
0
 40
0
 40
0
 40
0
 40
1
 40
1
 40
1
 40
1
 10
233.903909
 20
40.103183
 30
0.0
 10
236.468816
 20
40.103183
 30
0.0
 10
238.497946
 20
39.023376
 30
0.0
 10
239.991299
 20
36.863761
 30
0.0
  0
SPLINE
  5
1a5
100
AcDbEntity
  8
0
 62
7
100
AcDbSpline
 70
8
 71
3
 72
8
 73
4
 74
0
 40
0
 40
0
 40
0
 40
0
 40
1
 40
1
 40
1
 40
1
 10
239.991299
 20
36.863761
 30
0.0
 10
241.484646
 20
34.704141
 30
0.0
 10
242.231319
 20
31.763058
 30
0.0
 10
242.231319
 20
28.040511
 30
0.0
  0
LINE
  5
1a6
100
AcDbEntity
  8
0
 62
7
100
AcDbLine
 10
242.231319
 20
28.040511
 30
0.0
 11
242.231319
 21
21.646811
 31
0.0
  0
SPLINE
  5
1a7
100
AcDbEntity
  8
0
 62
7
100
AcDbSpline
 70
8
 71
3
 72
8
 73
4
 74
0
 40
0
 40
0
 40
0
 40
0
 40
1
 40
1
 40
1
 40
1
 10
242.231319
 20
21.646811
 30
0.0
 10
242.231319
 20
17.924264
 30
0.0
 10
241.484646
 20
14.976064
 30
0.0
 10
239.991299
 20
12.802211
 30
0.0
  0
SPLINE
  5
1a8
100
AcDbEntity
  8
0
 62
7
100
AcDbSpline
 70
8
 71
3
 72
8
 73
4
 74
0
 40
0
 40
0
 40
0
 40
0
 40
1
 40
1
 40
1
 40
1
 10
239.991299
 20
12.802211
 30
0.0
 10
238.497946
 20
10.642598
 30
0.0
 10
236.468816
 20
9.562791
 30
0.0
 10
233.903909
 20
9.562791
 30
0.0
  0
SPLINE
  5
1a9
100
AcDbEntity
  8
0
 62
7
100
AcDbSpline
 70
8
 71
3
 72
8
 73
4
 74
0
 40
0
 40
0
 40
0
 40
0
 40
1
 40
1
 40
1
 40
1
 10
233.903909
 20
9.562791
 30
0.0
 10
231.338989
 20
9.562791
 30
0.0
 10
229.309856
 20
10.642598
 30
0.0
 10
227.816509
 20
12.802211
 30
0.0
  0
SPLINE
  5
1aa
100
AcDbEntity
  8
0
 62
7
100
AcDbSpline
 70
8
 71
3
 72
8
 73
4
 74
0
 40
0
 40
0
 40
0
 40
0
 40
1
 40
1
 40
1
 40
1
 10
227.816509
 20
12.802211
 30
0.0
 10
226.334556
 20
14.976064
 30
0.0
 10
225.593579
 20
17.924264
 30
0.0
 10
225.593579
 20
21.646811
 30
0.0
  0
LINE
  5
1ab
100
AcDbEntity
  8
0
 62
7
100
AcDbLine
 10
225.593579
 20
21.646811
 30
0.0
 11
225.593579
 21
21.646811
 31
0.0
  0
LINE
  5
1ac
100
AcDbEntity
  8
0
 62
7
100
AcDbLine
 10
232.245249
 20
29.745421
 30
0.0
 11
232.245249
 21
19.941861
 31
0.0
  0
SPLINE
  5
1ad
100
AcDbEntity
  8
0
 62
7
100
AcDbSpline
 70
8
 71
3
 72
8
 73
4
 74
0
 40
0
 40
0
 40
0
 40
0
 40
1
 40
1
 40
1
 40
1
 10
232.245249
 20
19.941861
 30
0.0
 10
232.245249
 20
18.165794
 30
0.0
 10
232.798136
 20
17.277761
 30
0.0
 10
233.903909
 20
17.277761
 30
0.0
  0
SPLINE
  5
1ae
100
AcDbEntity
  8
0
 62
7
100
AcDbSpline
 70
8
 71
3
 72
8
 73
4
 74
0
 40
0
 40
0
 40
0
 40
0
 40
1
 40
1
 40
1
 40
1
 10
233.903909
 20
17.277761
 30
0.0
 10
235.021062
 20
17.277761
 30
0.0
 10
235.579639
 20
18.165794
 30
0.0
 10
235.579639
 20
19.941861
 30
0.0
  0
LINE
  5
1af
100
AcDbEntity
  8
0
 62
7
100
AcDbLine
 10
235.579639
 20
19.941861
 30
0.0
 11
235.579639
 21
29.745421
 31
0.0
  0
SPLINE
  5
1b0
100
AcDbEntity
  8
0
 62
7
100
AcDbSpline
 70
8
 71
3
 72
8
 73
4
 74
0
 40
0
 40
0
 40
0
 40
0
 40
1
 40
1
 40
1
 40
1
 10
235.579639
 20
29.745421
 30
0.0
 10
235.579639
 20
31.521421
 30
0.0
 10
235.021062
 20
32.409421
 30
0.0
 10
233.903909
 20
32.409421
 30
0.0
  0
SPLINE
  5
1b1
100
AcDbEntity
  8
0
 62
7
100
AcDbSpline
 70
8
 71
3
 72
8
 73
4
 74
0
 40
0
 40
0
 40
0
 40
0
 40
1
 40
1
 40
1
 40
1
 10
233.903909
 20
32.409421
 30
0.0
 10
232.798136
 20
32.409421
 30
0.0
 10
232.245249
 20
31.521421
 30
0.0
 10
232.245249
 20
29.745421
 30
0.0
  0
LINE
  5
1b2
100
AcDbEntity
  8
0
 62
7
100
AcDbLine
 10
232.245249
 20
29.745421
 30
0.0
 11
232.245249
 21
29.745421
 31
0.0
  0
LINE
  5
1b3
100
AcDbEntity
  8
0
 62
7
100
AcDbLine
 10
0.001699
 20
7.221731
 30
0.0
 11
242.458609
 21
7.221731
 31
0.0
  0
LINE
  5
1b4
100
AcDbEntity
  8
0
 62
7
100
AcDbLine
 10
242.458609
 20
7.221731
 30
0.0
 11
242.458609
 21
0.000001
 31
0.0
  0
LINE
  5
1b5
100
AcDbEntity
  8
0
 62
7
100
AcDbLine
 10
242.458609
 20
0.000001
 30
0.0
 11
0.001699
 21
0.000001
 31
0.0
  0
LINE
  5
1b6
100
AcDbEntity
  8
0
 62
7
100
AcDbLine
 10
0.001699
 20
0.000001
 30
0.0
 11
0.001699
 21
7.221731
 31
0.0
  0
ENDSEC
  0
SECTION
  2
OBJECTS
  0
DICTIONARY
  5
C
330
0
100
AcDbDictionary
  3
ACAD_GROUP
350
D
  3
ACAD_MLINESTYLE
350
17
  0
DICTIONARY
  5
D
330
C
100
AcDbDictionary
  0
DICTIONARY
  5
1A
330
C
100
AcDbDictionary
  0
DICTIONARY
  5
17
330
C
100
AcDbDictionary
  3
STANDARD
350
18
  0
DICTIONARY
  5
19
330
C
100
AcDbDictionary
  0
ENDSEC
  0
EOF
