<?xml version="1.0" encoding="UTF-8" standalone="no"?>
<!-- Created with Inkscape (http://www.inkscape.org/) -->

<svg
   xmlns:dc="http://purl.org/dc/elements/1.1/"
   xmlns:cc="http://creativecommons.org/ns#"
   xmlns:rdf="http://www.w3.org/1999/02/22-rdf-syntax-ns#"
   xmlns:svg="http://www.w3.org/2000/svg"
   xmlns="http://www.w3.org/2000/svg"
   xmlns:sodipodi="http://sodipodi.sourceforge.net/DTD/sodipodi-0.dtd"
   xmlns:inkscape="http://www.inkscape.org/namespaces/inkscape"
   width="55mm"
   height="91mm"
   viewBox="0 0 55 91"
   version="1.1"
   id="svg8"
   inkscape:export-filename="E:\work\keyboard\Shiro\siro_mask.png"
   inkscape:export-xdpi="500"
   inkscape:export-ydpi="500"
   inkscape:version="0.92.2 (5c3e80d, 2017-08-06)"
   sodipodi:docname="shiro_bottomplate.svg">
  <defs
     id="defs2" />
  <sodipodi:namedview
     id="base"
     pagecolor="#ffffff"
     bordercolor="#666666"
     borderopacity="1.0"
     inkscape:pageopacity="0.0"
     inkscape:pageshadow="2"
     inkscape:zoom="1.979899"
     inkscape:cx="-13.911219"
     inkscape:cy="175.10901"
     inkscape:document-units="mm"
     inkscape:current-layer="layer5"
     showgrid="false"
     inkscape:window-width="1858"
     inkscape:window-height="1057"
     inkscape:window-x="1974"
     inkscape:window-y="-8"
     inkscape:window-maximized="1" />
  <metadata
     id="metadata5">
    <rdf:RDF>
      <cc:Work
         rdf:about="">
        <dc:format>image/svg+xml</dc:format>
        <dc:type
           rdf:resource="http://purl.org/dc/dcmitype/StillImage" />
        <dc:title></dc:title>
      </cc:Work>
    </rdf:RDF>
  </metadata>
  <g
     inkscape:groupmode="layer"
     id="layer2"
     inkscape:label="レイヤー 2"
     style="display:inline"
     transform="translate(0,-206)">
    <path
       style="display:inline;fill:#000000;fill-opacity:1;stroke-width:0.04804022"
       d="m 12.749169,226.71677 -6.3823288,7.18338 -6.11252915,-5.21846 z"
       id="rect815-7-55-9-109-0-3"
       inkscape:connector-curvature="0"
       sodipodi:nodetypes="cccc" />
    <path
       style="display:inline;fill:#000000;fill-opacity:1;stroke-width:0.04804022"
       d="m -1.2210054,290.833 -6.3823292,7.18338 -6.1125284,-5.21846 z"
       id="rect815-7-55-9-3-3-1-3"
       inkscape:connector-curvature="0"
       sodipodi:nodetypes="cccc" />
    <path
       style="display:inline;fill:#000000;fill-opacity:1;stroke-width:0.04804022"
       d="m 69.254442,199.41401 -12.494964,1.96488 6.112642,5.21846 z"
       id="path4335"
       inkscape:connector-curvature="0" />
    <path
       style="display:inline;fill:#000000;fill-opacity:1;stroke-width:0.04804022"
       d="m 62.87212,206.59735 -12.494963,1.96486 3.375088,2.88137 -0.253467,-2.71587 3.568014,4.40362 z"
       id="path4333"
       inkscape:connector-curvature="0" />
    <path
       style="display:inline;fill:#000000;fill-opacity:1;stroke-width:0.04804022"
       d="m 50.377157,208.56221 6.382321,-7.18332 -12.494815,1.96501 z"
       id="path4331"
       inkscape:connector-curvature="0" />
    <path
       style="display:inline;fill:#000000;fill-opacity:1;stroke-width:0.04804022"
       d="m 44.264663,203.3439 -12.494815,1.96487 6.112493,5.21845 z"
       id="path4329"
       inkscape:connector-curvature="0" />
    <path
       style="display:inline;fill:#000000;fill-opacity:1;stroke-width:0.04804022"
       d="m 31.769848,205.30877 -2.812672,0.44233 1.154134,1.42445 z"
       id="path4327"
       inkscape:connector-curvature="0" />
    <path
       style="display:inline;fill:#000000;fill-opacity:1;stroke-width:0.04804022"
       d="m 13.16239,202.05517 -3.3680961,0.5297 1.3820161,1.70575 z"
       id="path4325"
       inkscape:connector-curvature="0" />
    <path
       style="display:inline;fill:#000000;fill-opacity:1;stroke-width:0.04804022"
       d="m 8.8668519,202.73071 -8.19927695,1.28947 6.11249395,5.21847 2.437977,-2.74399 z"
       id="path4323"
       inkscape:connector-curvature="0" />
    <path
       style="display:inline;fill:#000000;fill-opacity:1;stroke-width:0.04804022"
       d="m 6.7800689,209.23865 2.927207,2.49901 -0.256441,-2.74845 -0.01561,-0.16818 z"
       id="path4321"
       inkscape:connector-curvature="0" />
    <path
       style="display:inline;fill:#000000;fill-opacity:1;stroke-width:0.04804022"
       d="m 6.7800689,209.23865 -2.3591403,0.37104 0.9680506,1.19466 z"
       id="path4319"
       inkscape:connector-curvature="0" />
    <path
       style="display:inline;fill:#000000;fill-opacity:1;stroke-width:0.04804022"
       d="m 9.4508349,208.98921 3.9587751,4.88597 1.804607,-2.03095 z"
       id="path4317"
       inkscape:connector-curvature="0" />
    <path
       style="display:inline;fill:#000000;fill-opacity:1;stroke-width:0.04804022"
       d="m 26.809108,206.08895 -7.534075,1.18468 6.112493,5.21847 1.827218,-2.05655 -7.61e-4,-0.008 z"
       id="path4315"
       inkscape:connector-curvature="0" />
    <path
       style="display:inline;fill:#000000;fill-opacity:1;stroke-width:0.04804022"
       d="m 27.214,210.42811 0.0036,0.004 0.0015,-0.002 z"
       id="path4313"
       inkscape:connector-curvature="0" />
    <path
       style="display:inline;fill:#000000;fill-opacity:1;stroke-width:0.04804022"
       d="m 25.387526,212.4921 -1.803715,0.28366 0.740168,0.91338 z"
       id="path4311"
       inkscape:connector-curvature="0" />
    <path
       style="display:inline;fill:#000000;fill-opacity:1;stroke-width:0.04804022"
       d="m 19.275033,207.27363 -0.132387,0.0209 0.05429,0.067 z"
       id="path4309"
       inkscape:connector-curvature="0" />
    <path
       style="display:inline;fill:#000000;fill-opacity:1;stroke-width:0.04804022"
       d="m 18.122237,207.45491 -3.88678,0.61125 2.067743,2.55215 1.913194,-2.15328 z"
       id="path4307"
       inkscape:connector-curvature="0" />
    <path
       style="display:inline;fill:#000000;fill-opacity:1;stroke-width:0.04804022"
       d="m 0.74819655,210.18716 -1.2343095,0.19406 1.4154845,1.74713 z"
       id="path4305"
       inkscape:connector-curvature="0" />
    <path
       style="display:inline;fill:#000000;fill-opacity:1;stroke-width:0.04804022"
       d="m 0.92937155,212.12835 1.56601705,1.93272 0.7138401,-0.80339 z"
       id="path4303"
       inkscape:connector-curvature="0" />
    <path
       style="display:inline;fill:#000000;fill-opacity:1;stroke-width:0.04804022"
       d="m 0.92937155,212.12835 -3.01809285,-1.49501 -3.6260259,0.57018 6.11249425,5.21846 0.84369735,-0.94954 z"
       id="path4301"
       inkscape:connector-curvature="0" />
    <path
       style="display:inline;fill:#000000;fill-opacity:1;stroke-width:0.04804022"
       d="M 0.39774705,216.42198 1.410719,217.28684 1.316563,216.27746 Z"
       id="path4299"
       inkscape:connector-curvature="0" />
    <path
       style="display:inline;fill:#000000;fill-opacity:1;stroke-width:0.04804022"
       d="m 18.690453,213.54538 -0.01398,0.002 0.01607,0.0198 z"
       id="path4297"
       inkscape:connector-curvature="0" />
    <path
       style="display:inline;fill:#000000;fill-opacity:1;stroke-width:0.04804022"
       d="m 18.692536,213.56725 2.737704,3.37891 1.247994,-1.40467 z"
       id="path4295"
       inkscape:connector-curvature="0" />
    <path
       style="display:inline;fill:#000000;fill-opacity:1;stroke-width:0.04804022"
       d="m 18.692536,213.56725 -0.03406,-0.017 -4.889193,0.76901 2.32969,2.87512 2.906234,2.48116 0.232792,-0.26209 z"
       id="path4293"
       inkscape:connector-curvature="0" />
    <path
       style="display:inline;fill:#000000;fill-opacity:1;stroke-width:0.04804022"
       d="m 19.005204,219.67557 0.279646,0.23872 -0.02603,-0.2786 z"
       id="path4291"
       inkscape:connector-curvature="0" />
    <path
       style="display:inline;fill:#000000;fill-opacity:1;stroke-width:0.04804022"
       d="m 19.005204,219.67557 -0.79476,0.12501 0.326056,0.40245 z"
       id="path4289"
       inkscape:connector-curvature="0" />
    <path
       style="display:inline;fill:#000000;fill-opacity:1;stroke-width:0.04804022"
       d="m 10.003433,214.91149 -1.1413421,0.17949 1.3088331,1.61541 z"
       id="path4287"
       inkscape:connector-curvature="0" />
    <path
       style="display:inline;fill:#000000;fill-opacity:1;stroke-width:0.04804022"
       d="m 10.170924,216.70639 0.344945,0.42566 0.157227,-0.17696 z"
       id="path4285"
       inkscape:connector-curvature="0" />
    <path
       style="display:inline;fill:#000000;fill-opacity:1;stroke-width:0.04804022"
       d="m 10.170924,216.70639 -2.7906583,-1.38248 -3.4253641,0.53876 3.6673771,4.52624 2.6173663,-2.94595 z"
       id="path4283"
       inkscape:connector-curvature="0" />
    <path
       style="display:inline;fill:#000000;fill-opacity:1;stroke-width:0.04804022"
       d="m 43.994834,215.7457 -6.15548,0.96798 2.525737,3.11726 z"
       id="path4281"
       inkscape:connector-curvature="0" />
    <path
       style="display:inline;fill:#000000;fill-opacity:1;stroke-width:0.04804022"
       d="m 36.632711,216.90345 -3.700696,0.58192 3.804819,4.69607 0.421997,0.36032 z"
       id="path4279"
       inkscape:connector-curvature="0" />
    <path
       style="display:inline;fill:#000000;fill-opacity:1;stroke-width:0.04804022"
       d="m 28.127609,218.24099 -0.102638,0.0162 1.425897,1.75992 0.69123,-0.77809 z"
       id="path4277"
       inkscape:connector-curvature="0" />
    <path
       style="display:inline;fill:#000000;fill-opacity:1;stroke-width:0.04804022"
       d="m 27.94584,218.26956 -4.828205,0.75919 3.439494,4.24511 1.679363,-1.89001 z"
       id="path4275"
       inkscape:connector-curvature="0" />
    <path
       style="display:inline;fill:#000000;fill-opacity:1;stroke-width:0.04804022"
       d="m 62.602291,218.99913 -0.693016,0.10896 0.284406,0.35108 z"
       id="path4273"
       inkscape:connector-curvature="0" />
    <path
       style="display:inline;fill:#000000;fill-opacity:1;stroke-width:0.04804022"
       d="m 60.15301,219.38432 -3.150924,0.4956 2.297856,2.83612 2.316151,-2.60693 z"
       id="path4271"
       inkscape:connector-curvature="0" />
    <path
       style="display:inline;fill:#000000;fill-opacity:1;stroke-width:0.04804022"
       d="m 16.849402,220.01461 -3.546296,0.55767 2.339654,2.88762 2.494501,-2.8074 z"
       id="path4269"
       inkscape:connector-curvature="0" />
    <path
       style="display:inline;fill:#000000;fill-opacity:1;stroke-width:0.04804022"
       d="m 54.575116,220.26152 -2.48022,0.39008 2.844207,3.51033 z"
       id="path4267"
       inkscape:connector-curvature="0" />
    <path
       style="display:inline;fill:#000000;fill-opacity:1;stroke-width:0.04804022"
       d="m 54.939103,224.16193 1.467247,1.81099 0.66877,-0.7528 z"
       id="path4265"
       inkscape:connector-curvature="0" />
    <path
       style="display:inline;fill:#000000;fill-opacity:1;stroke-width:0.04804022"
       d="m 54.939103,224.16193 -2.587022,-1.28143 2.68103,2.28887 z"
       id="path4263"
       inkscape:connector-curvature="0" />
    <path
       style="display:inline;fill:#000000;fill-opacity:1;stroke-width:0.04804022"
       d="m 10.571798,221.00181 -2.1758821,0.34216 2.4952451,3.07961 z"
       id="path4261"
       inkscape:connector-curvature="0" />
    <path
       style="display:inline;fill:#000000;fill-opacity:1;stroke-width:0.04804022"
       d="m 10.891161,224.42358 1.858008,2.29319 0.84697,-0.95327 z"
       id="path4259"
       inkscape:connector-curvature="0" />
    <path
       style="display:inline;fill:#000000;fill-opacity:1;stroke-width:0.04804022"
       d="m 10.891161,224.42358 -2.6703211,-1.32281 2.7673041,2.36255 z"
       id="path4257"
       inkscape:connector-curvature="0" />
    <path
       style="display:inline;fill:#000000;fill-opacity:1;stroke-width:0.04804022"
       d="m 22.930956,223.02725 2.186741,1.86679 0.483431,-0.54413 z"
       id="path4255"
       inkscape:connector-curvature="0" />
    <path
       style="display:inline;fill:#000000;fill-opacity:1;stroke-width:0.04804022"
       d="m 55.143481,226.35183 -3.514761,0.55277 1.883891,2.32518 1.718781,-1.93465 z"
       id="path4253"
       inkscape:connector-curvature="0" />
    <path
       style="display:inline;fill:#000000;fill-opacity:1;stroke-width:0.04804022"
       d="m 47.065733,227.62211 -0.344202,0.0541 3.897341,4.81036 1.915276,-2.15552 z"
       id="path4249"
       inkscape:connector-curvature="0" />
    <path
       style="display:inline;fill:#000000;fill-opacity:1;stroke-width:0.04804022"
       d="m 46.456462,227.71795 -2.731307,0.42952 3.01125,2.57076 z"
       id="path4247"
       inkscape:connector-curvature="0" />
    <path
       style="display:inline;fill:#000000;fill-opacity:1;stroke-width:0.04804022"
       d="m 29.082421,230.4502 -1.989799,0.31298 1.697659,2.0954 0.467811,-0.52642 z"
       id="path4243"
       inkscape:connector-curvature="0" />
    <path
       style="display:inline;fill:#000000;fill-opacity:1;stroke-width:0.04804022"
       d="m 24.509171,231.16934 -2.323888,0.36553 3.711407,4.58057 2.627332,-2.95712 z"
       id="path4241"
       inkscape:connector-curvature="0" />
    <path
       style="display:inline;fill:#000000;fill-opacity:1;stroke-width:0.04804022"
       d="m 62.332463,231.40108 -1.35539,0.21312 0.556168,0.6864 z"
       id="path4239"
       inkscape:connector-curvature="0" />
    <path
       style="display:inline;fill:#000000;fill-opacity:1;stroke-width:0.04804022"
       d="m 20.395402,231.81631 -1.660026,0.26105 1.830193,1.56258 z"
       id="path4237"
       inkscape:connector-curvature="0" />
    <path
       style="display:inline;fill:#000000;fill-opacity:1;stroke-width:0.04804022"
       d="m 56.53472,232.31281 -0.464986,0.073 2.569768,3.1716 1.358661,-1.5291 z"
       id="path4235"
       inkscape:connector-curvature="0" />
    <path
       style="display:inline;fill:#000000;fill-opacity:1;stroke-width:0.04804022"
       d="m 55.711699,232.44215 -4.549154,0.71543 3.520562,4.34512 1.267035,1.0817 0.302849,-0.34097 z"
       id="path4233"
       inkscape:connector-curvature="0" />
    <path
       style="display:inline;fill:#000000;fill-opacity:1;stroke-width:0.04804022"
       d="m 55.950142,238.5844 -0.346434,0.0545 0.142203,0.17548 z"
       id="path4231"
       inkscape:connector-curvature="0" />
    <path
       style="display:inline;fill:#000000;fill-opacity:1;stroke-width:0.04804022"
       d="m 37.342833,235.33096 -0.901858,0.14183 0.370085,0.45677 z"
       id="path4229"
       inkscape:connector-curvature="0" />
    <path
       style="display:inline;fill:#000000;fill-opacity:1;stroke-width:0.04804022"
       d="m 33.978306,235.86006 -2.44467,0.38442 2.383536,2.94194 2.071016,-2.33084 z"
       id="path4227"
       inkscape:connector-curvature="0" />
    <path
       style="display:inline;fill:#000000;fill-opacity:1;stroke-width:0.04804022"
       d="m 29.650786,236.54051 -3.024339,0.47566 3.468204,4.28038 z"
       id="path4225"
       inkscape:connector-curvature="0" />
    <path
       style="display:inline;fill:#000000;fill-opacity:1;stroke-width:0.04804022"
       d="m 30.094651,241.29655 -1.335607,-0.66155 2.201319,1.87929 0.486703,-0.54785 z"
       id="path4223"
       inkscape:connector-curvature="0" />
    <path
       style="display:inline;fill:#000000;fill-opacity:1;stroke-width:0.04804022"
       d="m 22.699952,237.63352 -0.980695,0.15433 1.283694,1.58447 0.980099,-1.10314 z"
       id="path4221"
       inkscape:connector-curvature="0" />
    <path
       style="display:inline;fill:#000000;fill-opacity:1;stroke-width:0.04804022"
       d="m 20.963766,237.90663 -4.1517,0.65291 3.297293,4.06949 1.171984,-1.31909 z"
       id="path4219"
       inkscape:connector-curvature="0" />
    <path
       style="display:inline;fill:#000000;fill-opacity:1;stroke-width:0.04804022"
       d="m 54.7255,238.77699 -4.02913,0.63358 2.155801,2.66064 2.604871,-2.93182 z"
       id="path4217"
       inkscape:connector-curvature="0" />
    <path
       style="display:inline;fill:#000000;fill-opacity:1;stroke-width:0.04804022"
       d="m 47.593044,239.89858 -1.803716,0.28368 2.068487,2.55304 z"
       id="path4215"
       inkscape:connector-curvature="0" />
    <path
       style="display:inline;fill:#000000;fill-opacity:1;stroke-width:0.04804022"
       d="m 47.857815,242.7353 -4.387911,-2.17353 6.097915,5.20597 1.348251,-1.51749 z"
       id="path4213"
       inkscape:connector-curvature="0" />
    <path
       style="display:inline;fill:#000000;fill-opacity:1;stroke-width:0.04804022"
       d="m 14.049225,240.70866 4.416322,3.77049 0.976529,-1.09911 z"
       id="path4209"
       inkscape:connector-curvature="0" />
    <path
       style="display:inline;fill:#000000;fill-opacity:1;stroke-width:0.04804022"
       d="m 68.175277,249.02133 -3.689391,0.58013 1.513805,1.86843 z"
       id="path4203"
       inkscape:connector-curvature="0" />
    <path
       style="display:inline;fill:#000000;fill-opacity:1;stroke-width:0.04804022"
       d="m 62.385417,249.93172 -2.80687,0.44143 3.527405,4.35376 2.738149,-3.08185 z"
       id="path4201"
       inkscape:connector-curvature="0" />
    <path
       style="display:inline;fill:#000000;fill-opacity:1;stroke-width:0.04804022"
       d="m 57.416646,250.71309 -1.736333,0.2731 1.914384,1.63432 z"
       id="path4199"
       inkscape:connector-curvature="0" />
    <path
       style="display:inline;fill:#000000;fill-opacity:1;stroke-width:0.04804022"
       d="m 12.083225,251.66262 -10.9252282,1.71811 4.0920517,5.05043 0.078539,0.0969 0.3723152,0.31791 z"
       id="path4197"
       inkscape:connector-curvature="0" />
    <path
       style="display:inline;fill:#000000;fill-opacity:1;stroke-width:0.04804022"
       d="m 5.7009031,258.84596 -0.1017432,0.0162 0.041646,0.0515 z"
       id="path4195"
       inkscape:connector-curvature="0" />
    <path
       style="display:inline;fill:#000000;fill-opacity:1;stroke-width:0.04804022"
       d="m 5.2500485,258.43116 -0.083445,-0.0413 0.086421,0.0739 z"
       id="path4193"
       inkscape:connector-curvature="0" />
    <path
       style="display:inline;fill:#000000;fill-opacity:1;stroke-width:0.04804022"
       d="m -3.4749021,254.10925 -0.274291,0.043 1.3695215,1.69028 0.7346647,-0.8269 z"
       id="path4191"
       inkscape:connector-curvature="0" />
    <path
       style="display:inline;fill:#000000;fill-opacity:1;stroke-width:0.04804022"
       d="m -3.9605632,254.18561 -8.9458408,1.40675 6.1124917,5.21846 3.123556,-3.51553 z"
       id="path4189"
       inkscape:connector-curvature="0" />
    <path
       style="display:inline;fill:#000000;fill-opacity:1;stroke-width:0.04804022"
       d="m -6.7939123,260.81082 3.7503786,3.20181 -0.227882,-2.44218 -0.1207826,-1.29453 z"
       id="path4187"
       inkscape:connector-curvature="0" />
    <path
       style="display:inline;fill:#000000;fill-opacity:1;stroke-width:0.04804022"
       d="m -3.2714157,261.57045 3.12489425,3.85681 1.42440915,-1.60321 z"
       id="path4185"
       inkscape:connector-curvature="0" />
    <path
       style="display:inline;fill:#000000;fill-opacity:1;stroke-width:0.04804022"
       d="m 60.576198,256.39605 -1.463678,0.23009 1.09984,1.35749 1.09062,-1.22756 z"
       id="path4183"
       inkscape:connector-curvature="0" />
    <path
       style="display:inline;fill:#000000;fill-opacity:1;stroke-width:0.04804022"
       d="m 57.985011,256.80355 -3.779682,0.59442 3.113292,3.84252 0.97772,-1.1003 z"
       id="path4181"
       inkscape:connector-curvature="0" />
    <path
       style="display:inline;fill:#000000;fill-opacity:1;stroke-width:0.04804022"
       d="m 49.29799,258.16966 6.112643,5.21848 1.351523,-1.52107 z"
       id="path4179"
       inkscape:connector-curvature="0" />
    <path
       style="display:inline;fill:#000000;fill-opacity:1;stroke-width:0.04804022"
       d="m 55.410633,263.38814 3.464783,2.958 -0.32204,-3.45228 z"
       id="path4175"
       inkscape:connector-curvature="0" />
    <path
       style="display:inline;fill:#000000;fill-opacity:1;stroke-width:0.04804022"
       d="m 5.2946727,258.9098 -4.60270305,0.72391 2.05524855,2.53669 2.5807749,-2.90474 z"
       id="path4173"
       inkscape:connector-curvature="0" />
    <path
       style="display:inline;fill:#000000;fill-opacity:1;stroke-width:0.04804022"
       d="m 36.803176,260.13453 -2.226903,0.35021 0.913757,1.12784 z"
       id="path4167"
       inkscape:connector-curvature="0" />
    <path
       style="display:inline;fill:#000000;fill-opacity:1;stroke-width:0.04804022"
       d="m 31.923951,260.90191 -2.254869,0.35452 2.585832,3.19152 z"
       id="path4165"
       inkscape:connector-curvature="0" />
    <path
       style="display:inline;fill:#000000;fill-opacity:1;stroke-width:0.04804022"
       d="m 32.254914,264.44795 0.341525,0.42149 0.155591,-0.17517 z"
       id="path4163"
       inkscape:connector-curvature="0" />
    <path
       style="display:inline;fill:#000000;fill-opacity:1;stroke-width:0.04804022"
       d="m 32.254914,264.44795 -5.513336,-2.73105 -1.979685,0.31136 1.205304,1.48756 4.453658,3.80218 1.902186,-2.14092 z"
       id="path4161"
       inkscape:connector-curvature="0" />
    <path
       style="display:inline;fill:#000000;fill-opacity:1;stroke-width:0.04804022"
       d="m 67.905449,261.42311 -4.351915,0.68447 1.785718,2.2039 z"
       id="path4159"
       inkscape:connector-curvature="0" />
    <path
       style="display:inline;fill:#000000;fill-opacity:1;stroke-width:0.04804022"
       d="m 58.767127,262.86023 -0.120783,0.019 3.799316,4.68907 1.780363,-2.00401 z"
       id="path4157"
       inkscape:connector-curvature="0" />
    <path
       style="display:inline;fill:#000000;fill-opacity:1;stroke-width:0.04804022"
       d="m -2.8239819,266.36624 -1.8575626,0.29215 1.6414324,2.02575 0.3913551,-0.44055 z"
       id="path4155"
       inkscape:connector-curvature="0" />
    <path
       style="display:inline;fill:#000000;fill-opacity:1;stroke-width:0.04804022"
       d="m -7.0931929,267.03761 -2.4955421,0.39247 3.6548836,4.51092 2.6707659,-3.0061 z"
       id="path4153"
       inkscape:connector-curvature="0" />
    <path
       style="display:inline;fill:#000000;fill-opacity:1;stroke-width:0.04804022"
       d="m -11.510854,267.73235 -1.665379,0.26195 1.836142,1.56763 z"
       id="path4151"
       inkscape:connector-curvature="0" />
    <path
       style="display:inline;fill:#000000;fill-opacity:1;stroke-width:0.04804022"
       d="m 17.926038,269.28287 -3.44485,0.54175 0.730649,0.90177 0.682901,0.84283 z"
       id="path4149"
       inkscape:connector-curvature="0" />
    <path
       style="display:inline;fill:#000000;fill-opacity:1;stroke-width:0.04804022"
       d="m 15.211837,270.72639 -1.557835,-0.77169 -4.0798551,0.64161 3.4270011,4.22963 2.346795,-2.64145 z"
       id="path4147"
       inkscape:connector-curvature="0" />
    <path
       style="display:inline;fill:#000000;fill-opacity:1;stroke-width:0.04804022"
       d="m 6.431403,271.09043 -1.0003285,0.15732 1.1028168,0.9415 z"
       id="path4145"
       inkscape:connector-curvature="0" />
    <path
       style="display:inline;fill:#000000;fill-opacity:1;stroke-width:0.04804022"
       d="m 5.4310745,271.24775 -0.7642661,0.12025 0.3135604,0.38697 z"
       id="path4143"
       inkscape:connector-curvature="0" />
    <path
       style="display:inline;fill:#000000;fill-opacity:1;stroke-width:0.04804022"
       d="m 2.3757955,271.72817 -2.61617685,0.41151 2.32715945,2.87215 2.1141522,-2.37951 z"
       id="path4141"
       inkscape:connector-curvature="0" />
    <path
       style="display:inline;fill:#000000;fill-opacity:1;stroke-width:0.04804022"
       d="m -2.255617,272.45655 -2.8919542,0.45482 3.3164812,4.0933 z"
       id="path4139"
       inkscape:connector-curvature="0" />
    <path
       style="display:inline;fill:#000000;fill-opacity:1;stroke-width:0.04804022"
       d="m -1.83109,277.00467 -1.8846349,-0.93362 2.76447755,2.36017 0.6112055,-0.6879 z"
       id="path4137"
       inkscape:connector-curvature="0" />
    <path
       style="display:inline;fill:#000000;fill-opacity:1;stroke-width:0.04804022"
       d="m 67.63562,273.82505 -0.106952,0.0168 0.04388,0.0541 z"
       id="path4135"
       inkscape:connector-curvature="0" />
    <path
       style="display:inline;fill:#000000;fill-opacity:1;stroke-width:0.04804022"
       d="m 66.427044,274.0151 -8.712903,1.37014 2.265876,2.79669 -4.831329,-2.39321 -0.008,8.6e-4 6.112492,5.21847 5.895767,-6.63563 z"
       id="path4133"
       inkscape:connector-curvature="0" />
    <path
       style="display:inline;fill:#000000;fill-opacity:1;stroke-width:0.04804022"
       d="m 24.038532,274.50134 -5.116329,0.80458 2.099427,2.591 z"
       id="path4131"
       inkscape:connector-curvature="0" />
    <path
       style="display:inline;fill:#000000;fill-opacity:1;stroke-width:0.04804022"
       d="m 15.68679,275.81462 -1.671629,0.26299 1.916914,2.36581 z"
       id="path4129"
       inkscape:connector-curvature="0" />
    <path
       style="display:inline;fill:#000000;fill-opacity:1;stroke-width:0.04804022"
       d="m 15.932075,278.44342 -4.087143,-2.02454 -0.301214,0.0473 6.112492,5.21845 1.472752,-1.65752 z"
       id="path4127"
       inkscape:connector-curvature="0" />
    <path
       style="display:inline;fill:#000000;fill-opacity:1;stroke-width:0.04804022"
       d="m 11.543718,276.46621 0.121229,-0.13648 -0.669663,-0.33175 z"
       id="path4125"
       inkscape:connector-curvature="0" />
    <path
       style="display:inline;fill:#000000;fill-opacity:1;stroke-width:0.04804022"
       d="m 5.1612468,283.64969 -6.3338301,0.99597 0.061581,0.076 -0.1313438,-0.065 -4.837577,0.76067 3.3310579,4.11146 1.5277901,1.30421 0.61566695,-0.69296 -0.50559415,-5.41819 2.5373404,3.13155 z"
       id="path4123"
       inkscape:connector-curvature="0" />
    <path
       style="display:inline;fill:#000000;fill-opacity:1;stroke-width:0.04804022"
       d="m -1.2210751,290.83301 0.73912745,0.63104 -0.068717,-0.73642 z"
       id="path4121"
       inkscape:connector-curvature="0" />
    <path
       style="display:inline;fill:#000000;fill-opacity:1;stroke-width:0.04804022"
       d="m 34.197412,285.26315 -1.485693,0.23367 1.457431,1.79862 0.197091,-0.22175 -0.05549,-0.59578 z"
       id="path4119"
       inkscape:connector-curvature="0" />
    <path
       style="display:inline;fill:#000000;fill-opacity:1;stroke-width:0.04804022"
       d="m 30.783055,285.80014 -2.978675,0.46837 3.471031,4.28395 2.781583,-3.13066 z"
       id="path4117"
       inkscape:connector-curvature="0" />
    <path
       style="display:inline;fill:#000000;fill-opacity:1;stroke-width:0.04804022"
       d="m 67.365791,286.22684 -10.584001,1.66438 4.34284,5.36014 z"
       id="path4115"
       inkscape:connector-curvature="0" />
    <path
       style="display:inline;fill:#000000;fill-opacity:1;stroke-width:0.04804022"
       d="m 25.510392,286.62928 -1.741689,0.27386 1.920186,1.63936 z"
       id="path4113"
       inkscape:connector-curvature="0" />
    <path
       style="display:inline;fill:#000000;fill-opacity:1;stroke-width:0.04804022"
       d="m 23.768703,286.90314 -5.778702,0.90876 2.371188,2.92646 z"
       id="path4111"
       inkscape:connector-curvature="0" />
    <path
       style="display:inline;fill:#000000;fill-opacity:1;stroke-width:0.04804022"
       d="m 16.823371,287.99525 -3.74056,0.58833 4.28944,5.29407 z"
       id="path4109"
       inkscape:connector-curvature="0" />
    <path
       style="display:inline;fill:#000000;fill-opacity:1;stroke-width:0.04804022"
       d="m 17.372251,293.87765 -0.549326,-0.27208 0.563457,0.48103 0.12465,-0.14019 z"
       id="path4107"
       inkscape:connector-curvature="0" />
    <path
       style="display:inline;fill:#000000;fill-opacity:1;stroke-width:0.04804022"
       d="m 17.386382,294.0866 6.112494,5.21832 1.476024,-1.66125 -7.279122,-3.60573 z"
       id="path4105"
       inkscape:connector-curvature="0" />
    <path
       style="display:inline;fill:#000000;fill-opacity:1;stroke-width:0.04804022"
       d="m 52.139669,288.62123 -0.265068,0.0417 0.303891,0.37521 z"
       id="path4103"
       inkscape:connector-curvature="0" />
    <path
       style="display:inline;fill:#000000;fill-opacity:1;stroke-width:0.04804022"
       d="m 52.178492,289.03812 0.925509,1.14227 0.421997,-0.47478 z"
       id="path4101"
       inkscape:connector-curvature="0" />
    <path
       style="display:inline;fill:#000000;fill-opacity:1;stroke-width:0.04804022"
       d="m 52.178492,289.03812 -0.648095,-0.32104 -4.562987,0.71766 3.243,4.00251 2.152529,-2.42266 z"
       id="path4099"
       inkscape:connector-curvature="0" />
    <path
       style="display:inline;fill:#000000;fill-opacity:1;stroke-width:0.04804022"
       d="m 8.2264929,289.34724 -0.05102,0.008 1.271348,1.56912 0.6000481,-0.6754 z"
       id="path4097"
       inkscape:connector-curvature="0" />
    <path
       style="display:inline;fill:#000000;fill-opacity:1;stroke-width:0.04804022"
       d="m 8.1363509,289.36137 -4.8679204,0.76558 3.2847977,4.05431 1.8397127,-2.07069 z"
       id="path4095"
       inkscape:connector-curvature="0" />
    <path
       style="display:inline;fill:#000000;fill-opacity:1;stroke-width:0.04804022"
       d="m 43.452649,289.98736 -1.076488,0.16937 1.186858,1.01323 z"
       id="path4093"
       inkscape:connector-curvature="0" />
    <path
       style="display:inline;fill:#000000;fill-opacity:1;stroke-width:0.04804022"
       d="m 28.973836,292.26432 -1.635334,0.25718 1.043318,1.28769 1.134053,-1.27638 z"
       id="path4091"
       inkscape:connector-curvature="0" />
    <path
       style="display:inline;fill:#000000;fill-opacity:1;stroke-width:0.04804022"
       d="m 26.078757,292.71959 -3.647593,0.57359 3.056916,3.77287 0.90156,-1.01474 z"
       id="path4089"
       inkscape:connector-curvature="0" />
    <path
       style="display:inline;fill:#000000;fill-opacity:1;stroke-width:0.04804022"
       d="m 60.954612,293.38546 0.02886,0.0248 0.0063,-0.006 z"
       id="path4087"
       inkscape:connector-curvature="0" />
    <path
       style="display:inline;fill:#000000;fill-opacity:1;stroke-width:0.04804022"
       d="m 46.24405,293.45884 2.244604,1.91634 0.496222,-0.55856 z"
       id="path4085"
       inkscape:connector-curvature="0" />
    <path
       style="display:inline;fill:#000000;fill-opacity:1;stroke-width:0.04804022"
       d="m 2.1126604,293.6791 2.7789066,2.37237 0.6143283,-0.69146 z"
       id="rect815-7-55-9-10-8-0-5-7-2"
       inkscape:connector-curvature="0" />
    <path
       style="display:inline;fill:#000000;fill-opacity:1;stroke-width:0.04804022"
       d="m 49.56782,245.76774 -6.382328,7.18336 -6.112528,-5.21845 z"
       id="rect815-7-55-9-109-0-3-2"
       inkscape:connector-curvature="0"
       sodipodi:nodetypes="cccc" />
    <path
       style="display:inline;fill:#000000;fill-opacity:1;stroke-width:0.04804022"
       d="m 49.298036,258.16961 -6.382332,7.18337 -6.112529,-5.21845 z"
       id="rect815-7-55-9-109-0-3-5"
       inkscape:connector-curvature="0"
       sodipodi:nodetypes="cccc" />
  </g>
  <g
     inkscape:label="レイヤー 1"
     inkscape:groupmode="layer"
     id="layer1"
     style="display:none;opacity:1"
     transform="translate(0,-206)" />
  <g
     inkscape:groupmode="layer"
     id="layer3"
     inkscape:label="レイヤー 3"
     style="display:none"
     transform="translate(0,-206)">
    <path
       id="rect1618-45-5-7-6-8-1-7"
       style="display:inline;fill:#00000a;fill-opacity:1;stroke-width:0.16199383"
       d="m -11.072825,272.4267 9.9617891,12.29508 -9.2416611,-4.57796 z m 0.720128,7.71712 9.96178665,12.2951 -9.24166105,-4.57796 z m -1.440255,-15.43426 9.9617888,12.2951 -9.2416618,-4.57796 z m -0.720129,-7.71713 9.9617902,12.29509 -9.2416612,-4.57796 z m 64.691624,32.04574 9.961787,12.2951 -9.241661,-4.57796 z m -9.241662,-4.57796 9.961788,12.2951 -9.241662,-4.57797 z m -17.043061,6.27834 9.961788,12.2951 -9.241661,-4.57797 z m -9.241661,-4.57796 9.961788,12.29509 -9.241661,-4.57797 z m 8.521532,-3.13917 9.961787,12.29509 -9.24166,-4.57796 z m -17.0430671,6.27833 9.9617891,12.2951 -9.2416631,-4.57797 z m -0.7201273,-7.71714 9.9617894,12.2951 -9.2416631,-4.57796 z m -8.5215334,3.13917 9.9617867,12.2951 -9.24166025,-4.57796 z m 34.8062528,-4.83954 9.961791,12.2951 -9.241662,-4.57796 z m 17.763194,1.4388 9.961788,12.2951 -9.241662,-4.57797 z m -0.720121,-7.71714 9.961787,12.2951 -9.241662,-4.57796 z m -8.52153,3.13918 9.961789,12.29509 -9.241662,-4.57796 z m -0.720132,-7.71714 9.961787,12.2951 -9.24166,-4.57797 z m -8.521528,3.13918 9.961787,12.29509 -9.241661,-4.57797 z m -8.52153,3.13916 9.961785,12.2951 -9.24166,-4.57796 z m -9.241664,-4.57796 9.961789,12.2951 -9.241662,-4.57797 z m 8.521533,-3.13916 9.961787,12.29508 -9.241661,-4.57796 z m -17.0430669,6.27833 9.9617879,12.29509 -9.2416624,-4.57797 z m -0.7201273,-7.71714 9.9617882,12.2951 -9.2416617,-4.57796 z m -8.5215346,3.13917 9.9617874,12.29509 -9.2416607,-4.57795 z m 56.0500808,-60.55985 9.961787,12.2951 -9.241661,-4.57796 z m -21.243827,55.7203 9.961791,12.2951 -9.241662,-4.57795 z m -9.241657,-4.57795 9.961786,12.2951 -9.241657,-4.57796 z m -9.241663,-4.57796 9.961792,12.2951 -9.241663,-4.57797 z m -8.5215317,3.13917 9.9617907,12.29509 -9.2416616,-4.57797 z m -8.5215313,3.13916 9.9617903,12.2951 -9.2416611,-4.57797 z m -0.7201291,-7.71712 9.9617895,12.29508 -9.2416604,-4.57796 z m -0.7201303,-7.71714 9.9617907,12.2951 -9.2416604,-4.57796 z m -4.320775,-46.3028 9.96179065,12.2951 -9.24166145,-4.57796 z m 53.2895834,4.31638 9.961787,12.2951 -9.241661,-4.57797 z m 9.961787,12.2951 9.961785,12.29508 -9.241657,-4.57795 z m -9.241661,-4.57797 9.961789,12.2951 -9.241662,-4.57796 z m -18.483324,-9.15592 9.961786,12.29509 -9.241657,-4.57796 z m 0.720129,7.71713 9.96179,12.2951 -9.241661,-4.57796 z m -9.241662,-4.57796 9.961791,12.2951 -9.24166,-4.57797 z m -9.2416611,-4.57797 9.9617921,12.2951 -9.2416631,-4.57796 z m 41.2874191,64.61466 9.961788,12.29509 -9.241662,-4.57797 z m -18.48332,-9.15593 9.961789,12.29509 -9.241662,-4.57797 z m 23.404208,-32.56891 9.961784,12.2951 -9.241658,-4.57796 z m -5.641015,34.0077 9.961789,12.2951 -9.241662,-4.57797 z m -12.842308,-43.16363 9.961787,12.2951 -9.241658,-4.57796 z m 22.083964,47.7416 9.961791,12.29509 -9.241658,-4.57796 z m -0.720127,-7.71714 9.961791,12.2951 -9.241664,-4.57796 z m -0.720129,-7.71713 9.961786,12.29509 -9.241657,-4.57796 z m -0.720132,-7.71713 9.961796,12.29509 -9.241664,-4.57796 z m -0.720127,-7.71713 9.961797,12.2951 -9.24167,-4.57797 z m -27.724981,-13.73389 9.961794,12.29509 -9.241665,-4.57797 z m 17.763193,1.43879 9.961788,12.2951 -9.241662,-4.57797 z m 0.720126,7.71713 9.961789,12.2951 -9.241656,-4.57796 z m 2.160389,23.1514 9.961788,12.2951 -9.241656,-4.57797 z m -1.440256,-15.43426 9.961788,12.29509 -9.241658,-4.57797 z m -9.961791,-12.2951 9.961791,12.2951 -9.241658,-4.57797 z m 2.880519,30.86853 9.961787,12.29509 -9.241661,-4.57796 z m -9.241662,-4.57797 9.961788,12.2951 -9.241659,-4.57796 z m 8.521528,-3.13917 9.961794,12.2951 -9.24166,-4.57796 z m -9.961787,-12.2951 9.961787,12.2951 -9.241657,-4.57796 z m 9.241661,4.57797 9.961788,12.2951 -9.241662,-4.57797 z m -0.720126,-7.71713 9.961788,12.29509 -9.241662,-4.57796 z m -9.241665,-4.57797 9.961791,12.2951 -9.241661,-4.57797 z m -9.961789,-12.29509 9.961789,12.2951 -9.24166,-4.57796 z m -5.641016,34.0077 9.961793,12.2951 -9.241663,-4.57796 z M 0.20920555,204.41129 10.170996,216.70639 0.92933535,212.12843 Z m 22.08396745,47.7416 9.96179,12.29508 -9.241657,-4.57795 z m -1.440256,-15.43427 9.96179,12.29509 -9.241663,-4.57796 z m -0.720129,-7.71714 9.96179,12.2951 -9.241661,-4.57796 z m -0.72013,-7.71712 9.96179,12.29508 -9.24166,-4.57796 z m -9.9617921,-12.2951 9.9617921,12.2951 -9.241662,-4.57797 z m 0.7201301,7.71713 9.961792,12.29509 -9.241663,-4.57796 z m 2.160388,23.1514 9.961789,12.2951 -9.24166,-4.57797 z m -0.720129,-7.71714 9.961789,12.2951 -9.24166,-4.57796 z m -0.72013,-7.71713 9.961792,12.2951 -9.241662,-4.57797 z M 0.92933535,212.12843 10.891125,224.42352 1.6494645,219.84555 Z m -6.36114395,26.29057 9.96179,12.29509 -9.2416608,-4.57796 z m 8.521532,-3.13918 9.9617896,12.2951 -9.2416606,-4.57796 z m -9.2416611,-4.57796 9.9617901,12.2951 -9.241661,-4.57796 z m -0.7201292,-7.71713 9.9617903,12.29509 -9.2416611,-4.57796 z m 9.2416604,4.57796 9.9617905,12.2951 -9.2416606,-4.57797 z m -9.9617896,-12.2951 9.9617896,12.2951 -9.2416604,-4.57796 z"
       inkscape:connector-curvature="0" />
  </g>
  <g
     inkscape:groupmode="layer"
     id="layer4"
     inkscape:label="レイヤー 4"
     style="display:inline">
    <rect
       style="fill:#ffffff;fill-opacity:1;stroke-width:0.30697191"
       id="rect4368"
       width="22.328995"
       height="29.534676"
       x="29.967127"
       y="58.419884" />
  </g>
  <g
     inkscape:groupmode="layer"
     id="layer5"
     inkscape:label="レイヤー 5"
     style="display:none">
    <g
       style="display:inline"
       transform="matrix(0.14229147,0,0,0.14229147,27.496262,50.967839)"
       id="layer1-7-4"
       inkscape:label="レイヤー 1">
      <path
         sodipodi:nodetypes="cccc"
         inkscape:connector-curvature="0"
         id="rect821-2-3"
         d="m 25.796876,107.53944 c 18.974386,7.63047 146.654774,17.57589 146.654774,17.57589 H 35.048461 Z"
         style="fill:#626263;fill-opacity:1;stroke-width:0.25191641" />
      <path
         sodipodi:nodetypes="cccc"
         inkscape:connector-curvature="0"
         id="rect821-2-4-1"
         d="M 35.305445,96.767119 C 51.619871,101.11567 161.40114,106.78349 161.40114,106.78349 H 43.260079 Z"
         style="fill:#626263;fill-opacity:1;stroke-width:0.17634168" />
      <path
         sodipodi:nodetypes="cccc"
         inkscape:connector-curvature="0"
         id="rect821-2-4-7-3"
         d="M 27.767111,79.947174 C 46.386836,85.198253 171.68069,92.042413 171.68069,92.042413 H 36.845769 Z"
         style="fill:#626263;fill-opacity:1;stroke-width:0.20701781" />
      <path
         sodipodi:nodetypes="ccccc"
         inkscape:connector-curvature="0"
         id="rect821-2-4-7-1-6"
         d="m 92.356879,61.709821 c 24.958781,3.928162 -1.884555,60.854169 -1.884555,60.854169 l 11.013936,0.21999 20.16571,-60.318206 z"
         style="fill:#626263;fill-opacity:1;stroke-width:0.20701781" />
      <path
         sodipodi:nodetypes="cccc"
         inkscape:connector-curvature="0"
         id="rect821-2-4-7-1-5-37"
         d="M 68.792535,130.39149 52.821276,147.52395 91.847319,130.58048 Z"
         style="fill:#626263;fill-opacity:1;stroke-width:0.21742713" />
      <path
         sodipodi:nodetypes="cccc"
         inkscape:connector-curvature="0"
         id="rect821-2-4-7-1-5-2-3"
         d="M 44.129588,145.82218 75.31265,153.2173 51.687348,140.24791 Z"
         style="fill:#626263;fill-opacity:1;stroke-width:0.17165965" />
      <path
         sodipodi:nodetypes="ccccccc"
         inkscape:connector-curvature="0"
         id="rect821-2-4-7-1-5-1-4"
         d="m 110.5589,130.71378 -79.76243,32.17546 c 0,0 10.330144,1.02111 10.025855,8.22977 5.731248,-7.29079 100.426055,-3.57728 100.426055,-3.57728 l -77.865938,-4.75784 c 0,0 62.953698,-30.23881 86.295238,-32.18791 z"
         style="fill:#626263;fill-opacity:1;stroke-width:0.17165965" />
      <path
         sodipodi:nodetypes="cccc"
         inkscape:connector-curvature="0"
         id="rect821-2-4-7-1-5-3-7"
         d="m 109.89745,149.0905 -5.48063,21.20391 58.20654,-1.2958 z"
         style="fill:#626263;fill-opacity:1;stroke-width:0.17165965" />
      <path
         sodipodi:nodetypes="cccccc"
         inkscape:connector-curvature="0"
         id="rect821-2-4-7-1-5-22-6"
         d="m 69.453993,200.68668 c 23.070162,-0.34619 21.624601,-34.784 21.624601,-34.784 l 10.125426,0.0332 4.53393,39.69842 -36.003424,-0.30124 z"
         style="fill:#626263;fill-opacity:1;stroke-width:0.17165965" />
      <path
         sodipodi:nodetypes="cccc"
         inkscape:connector-curvature="0"
         id="rect821-2-4-7-1-5-4-7"
         d="m 60.949528,205.98765 -30.427054,1e-5 c 14.80575,-1.42711 33.787701,-16.47878 47.339725,-36.43608 z"
         style="fill:#626263;fill-opacity:1;stroke-width:0.17165965" />
      <path
         sodipodi:nodetypes="cccc"
         inkscape:connector-curvature="0"
         id="rect821-2-4-7-1-5-4-6-2"
         d="m 162.62512,206.22325 -46.68003,-0.23559 -5.00997,-35.3941 c 0,0 13.27296,29.92727 51.69,35.62969 z"
         style="fill:#626263;fill-opacity:1;stroke-width:0.17165965" />
    </g>
    <text
       id="text826-4"
       y="86.448616"
       x="30.568655"
       style="font-style:normal;font-weight:normal;font-size:6.9363327px;line-height:1.20000005;font-family:sans-serif;letter-spacing:0px;word-spacing:0px;display:inline;fill:#000000;fill-opacity:1;stroke:none;stroke-width:0.43352079"
       xml:space="preserve"><tspan
         id="tspan828-4"
         style="font-style:normal;font-variant:normal;font-weight:normal;font-stretch:normal;font-family:'Showcard Gothic';-inkscape-font-specification:'Showcard Gothic';stroke-width:0.43352079"
         y="86.448616"
         x="30.568655"
         sodipodi:role="line">SHIRO</tspan></text>
  </g>
</svg>
